<svg width="12" height="8" viewBox="0 0 12 8" fill="none" xmlns="http://www.w3.org/2000/svg">
<path d="M6.27471 2.88823L2.37471 6.78823C2.19137 6.97157 1.95804 7.06323 1.67471 7.06323C1.39137 7.06323 1.15804 6.97157 0.974707 6.78823C0.791374 6.6049 0.699707 6.37157 0.699707 6.08823C0.699707 5.8049 0.791374 5.57157 0.974707 5.38823L5.57471 0.788232C5.67471 0.688232 5.78304 0.617399 5.89971 0.575732C6.01637 0.534066 6.14137 0.513232 6.27471 0.513232C6.40804 0.513232 6.53304 0.534066 6.64971 0.575732C6.76637 0.617399 6.87471 0.688232 6.97471 0.788232L11.5747 5.38823C11.758 5.57157 11.8497 5.8049 11.8497 6.08823C11.8497 6.37157 11.758 6.6049 11.5747 6.78823C11.3914 6.97157 11.158 7.06323 10.8747 7.06323C10.5914 7.06323 10.358 6.97157 10.1747 6.78823L6.27471 2.88823Z" fill="#CCCCCC"/>
</svg>
