<svg width="7" height="12" viewBox="0 0 7 12" fill="none" xmlns="http://www.w3.org/2000/svg">
<path d="M4.5998 5.63817L0.699805 1.73817C0.516471 1.55484 0.424805 1.3215 0.424805 1.03817C0.424805 0.754838 0.516471 0.521505 0.699805 0.338171C0.883138 0.154838 1.11647 0.0631714 1.3998 0.0631714C1.68314 0.0631714 1.91647 0.154838 2.0998 0.338171L6.6998 4.93817C6.7998 5.03817 6.87064 5.1465 6.9123 5.26317C6.95397 5.37984 6.9748 5.50484 6.9748 5.63817C6.9748 5.7715 6.95397 5.8965 6.9123 6.01317C6.87064 6.12984 6.7998 6.23817 6.6998 6.33817L2.0998 10.9382C1.91647 11.1215 1.68314 11.2132 1.3998 11.2132C1.11647 11.2132 0.883138 11.1215 0.699805 10.9382C0.516471 10.7548 0.424805 10.5215 0.424805 10.2382C0.424805 9.95484 0.516471 9.72151 0.699805 9.53817L4.5998 5.63817Z" fill="#666666"/>
</svg>
