<svg width="29" height="29" viewBox="0 0 29 29" fill="none" xmlns="http://www.w3.org/2000/svg">
<path d="M16.3125 15.225L14.645 13.05C14.5 12.8567 14.3067 12.76 14.065 12.76C13.8233 12.76 13.63 12.8567 13.485 13.05L11.0562 16.24C10.8629 16.4817 10.8327 16.7354 10.9656 17.0012C11.0985 17.2671 11.3221 17.4 11.6362 17.4H23.1637C23.4779 17.4 23.7015 17.2671 23.8344 17.0012C23.9673 16.7354 23.9371 16.4817 23.7437 16.24L20.2275 11.6362C20.0825 11.4429 19.8892 11.3462 19.6475 11.3462C19.4058 11.3462 19.2125 11.4429 19.0675 11.6362L16.3125 15.225ZM8.7 23.2C7.9025 23.2 7.21979 22.916 6.65187 22.3481C6.08396 21.7802 5.8 21.0975 5.8 20.3V2.9C5.8 2.1025 6.08396 1.41979 6.65187 0.851875C7.21979 0.283958 7.9025 0 8.7 0H26.1C26.8975 0 27.5802 0.283958 28.1481 0.851875C28.716 1.41979 29 2.1025 29 2.9V20.3C29 21.0975 28.716 21.7802 28.1481 22.3481C27.5802 22.916 26.8975 23.2 26.1 23.2H8.7ZM8.7 20.3H26.1V2.9H8.7V20.3ZM2.9 29C2.1025 29 1.41979 28.716 0.851875 28.1481C0.283958 27.5802 0 26.8975 0 26.1V7.25C0 6.83917 0.138958 6.49479 0.416875 6.21687C0.694792 5.93896 1.03917 5.8 1.45 5.8C1.86083 5.8 2.20521 5.93896 2.48312 6.21687C2.76104 6.49479 2.9 6.83917 2.9 7.25V26.1H21.75C22.1608 26.1 22.5052 26.239 22.7831 26.5169C23.061 26.7948 23.2 27.1392 23.2 27.55C23.2 27.9608 23.061 28.3052 22.7831 28.5831C22.5052 28.861 22.1608 29 21.75 29H2.9Z" fill="white"/>
</svg>
