<svg width="43" height="30" viewBox="0 0 43 30" fill="none" xmlns="http://www.w3.org/2000/svg">
<path d="M0 14.9464C0 13.7679 0.421042 12.7679 1.26313 11.9464C2.10521 11.125 3.1175 10.7143 4.3 10.7143V4.28571C4.3 3.10714 4.72104 2.09821 5.56313 1.25893C6.40521 0.419643 7.4175 0 8.6 0H34.4C35.5825 0 36.5948 0.419643 37.4369 1.25893C38.279 2.09821 38.7 3.10714 38.7 4.28571V10.7143C39.8825 10.7143 40.8948 11.1339 41.7369 11.9732C42.579 12.8125 43 13.8214 43 15V22.8214C43 23.6429 42.7223 24.3304 42.1669 24.8839C41.6115 25.4375 40.9217 25.7143 40.0975 25.7143L38.915 29.3036C38.8433 29.5179 38.7179 29.6875 38.5388 29.8125C38.3596 29.9375 38.1625 30 37.9475 30H37.3025C37.0875 30 36.8904 29.9375 36.7113 29.8125C36.5321 29.6875 36.4067 29.5179 36.335 29.3036L35.1525 25.7143H7.8475L6.665 29.3036C6.59333 29.5179 6.46792 29.6875 6.28875 29.8125C6.10958 29.9375 5.9125 30 5.6975 30H5.0525C4.8375 30 4.64042 29.9375 4.46125 29.8125C4.28208 29.6875 4.15667 29.5179 4.085 29.3036L2.9025 25.7143C2.07833 25.7143 1.38854 25.4375 0.833125 24.8839C0.277708 24.3304 0 23.6429 0 22.8214V14.9464ZM23.65 10.7143H34.4V4.28571H23.65V10.7143ZM8.6 10.7143H19.35V4.28571H8.6V10.7143ZM4.3 21.4286H38.7V15H4.3V21.4286Z" fill="white" fill-opacity="0.7"/>
</svg>
