<svg width="34" height="47" viewBox="0 0 34 47" fill="none" xmlns="http://www.w3.org/2000/svg">
<path d="M8.5 41.8322V43.0626C8.5 44.0879 8.1901 44.9594 7.57031 45.6771C6.95052 46.3948 6.19792 46.7537 5.3125 46.7537C4.42708 46.7537 3.67448 46.3948 3.05469 45.6771C2.4349 44.9594 2.125 44.0879 2.125 43.0626V39.2485C1.4875 38.4282 0.973958 37.5157 0.584375 36.5109C0.194792 35.5061 0 34.4091 0 33.2197V9.84288C0 6.43888 1.36354 3.9474 4.09063 2.36844C6.81771 0.789481 11.1208 0 17 0C23.0917 0 27.4479 0.758722 30.0688 2.27617C32.6896 3.79361 34 6.31585 34 9.84288V33.2197C34 34.4091 33.8052 35.5061 33.4156 36.5109C33.026 37.5157 32.5125 38.4282 31.875 39.2485V43.0626C31.875 44.0879 31.5651 44.9594 30.9453 45.6771C30.3255 46.3948 29.5729 46.7537 28.6875 46.7537C27.8021 46.7537 27.0495 46.3948 26.4297 45.6771C25.8099 44.9594 25.5 44.0879 25.5 43.0626V41.8322H8.5ZM17.1063 7.38216H29.0063H5.20625H17.1063ZM25.5 24.6072H4.25H29.75H25.5ZM4.25 19.6858H29.75V12.3036H4.25V19.6858ZM9.5625 34.4501C10.4479 34.4501 11.2005 34.0912 11.8203 33.3735C12.4401 32.6558 12.75 31.7843 12.75 30.759C12.75 29.7337 12.4401 28.8622 11.8203 28.1445C11.2005 27.4268 10.4479 27.0679 9.5625 27.0679C8.67708 27.0679 7.92448 27.4268 7.30469 28.1445C6.6849 28.8622 6.375 29.7337 6.375 30.759C6.375 31.7843 6.6849 32.6558 7.30469 33.3735C7.92448 34.0912 8.67708 34.4501 9.5625 34.4501ZM24.4375 34.4501C25.3229 34.4501 26.0755 34.0912 26.6953 33.3735C27.3151 32.6558 27.625 31.7843 27.625 30.759C27.625 29.7337 27.3151 28.8622 26.6953 28.1445C26.0755 27.4268 25.3229 27.0679 24.4375 27.0679C23.5521 27.0679 22.7995 27.4268 22.1797 28.1445C21.5599 28.8622 21.25 29.7337 21.25 30.759C21.25 31.7843 21.5599 32.6558 22.1797 33.3735C22.7995 34.0912 23.5521 34.4501 24.4375 34.4501ZM5.20625 7.38216H29.0063C28.475 6.68495 27.3328 6.10053 25.5797 5.6289C23.8266 5.15726 21.0021 4.92144 17.1063 4.92144C13.3167 4.92144 10.5453 5.17776 8.79219 5.69041C7.03906 6.20306 5.84375 6.76698 5.20625 7.38216ZM8.5 36.9108H25.5C26.6688 36.9108 27.6693 36.4289 28.5016 35.4651C29.3339 34.5013 29.75 33.3427 29.75 31.9893V24.6072H4.25V31.9893C4.25 33.3427 4.66615 34.5013 5.49844 35.4651C6.33073 36.4289 7.33125 36.9108 8.5 36.9108Z" fill="white" fill-opacity="0.7"/>
</svg>
