<svg width="42" height="42" viewBox="0 0 42 42" fill="none" xmlns="http://www.w3.org/2000/svg">
<path d="M12.6 38.3082C9.17 36.9721 6.2125 34.9944 3.7275 32.375C1.2425 29.7556 0 26.6352 0 23.0137C0 22.416 0.20125 21.915 0.60375 21.5106C1.00625 21.1063 1.505 20.9041 2.1 20.9041H4.2V5.92603C4.2 5.39863 4.375 4.94155 4.725 4.55479C5.075 4.16804 5.5125 3.9395 6.0375 3.86918L40.2675 0.0191781C40.7575 -0.0511416 41.1687 0.0719178 41.5012 0.388356C41.8337 0.704795 42 1.10913 42 1.60137C42 1.98813 41.86 2.33094 41.58 2.62979C41.3 2.92865 40.9675 3.09566 40.5825 3.13082L17.85 5.71507V9.30137H40.425C40.88 9.30137 41.2562 9.4508 41.5537 9.74966C41.8512 10.0485 42 10.4265 42 10.8836C42 11.3406 41.8512 11.7186 41.5537 12.0175C41.2562 12.3163 40.88 12.4658 40.425 12.4658H17.85V20.9041H39.9C40.495 20.9041 40.9937 21.1063 41.3962 21.5106C41.7987 21.915 42 22.416 42 23.0137C42 26.6352 40.7575 29.7556 38.2725 32.375C35.7875 34.9944 32.83 36.9721 29.4 38.3082V39.8904C29.4 40.4881 29.1987 40.9892 28.7962 41.3935C28.3937 41.7978 27.895 42 27.3 42H14.7C14.105 42 13.6062 41.7978 13.2037 41.3935C12.8012 40.9892 12.6 40.4881 12.6 39.8904V38.3082ZM12.6 9.30137H14.7V6.08425L12.6 6.29521V9.30137ZM7.35 9.30137H9.45V6.66438L7.35 6.87534V9.30137ZM12.6 20.9041H14.7V12.4658H12.6V20.9041ZM7.35 20.9041H9.45V12.4658H7.35V20.9041ZM16.8 37.7808H25.2V35.4603L27.825 34.4055C29.96 33.5616 31.85 32.3486 33.495 30.7664C35.14 29.1842 36.33 27.3032 37.065 25.1233H4.935C5.67 27.3032 6.86 29.193 8.505 30.7928C10.15 32.3926 12.04 33.5968 14.175 34.4055L16.8 35.4603V37.7808Z" fill="white" fill-opacity="0.7"/>
</svg>
