<svg width="42" height="42" viewBox="0 0 42 42" fill="none" xmlns="http://www.w3.org/2000/svg">
<path d="M12 32.3132C12.6375 32.3132 13.1719 32.0976 13.6031 31.6664C14.0344 31.2351 14.25 30.7007 14.25 30.0632C14.25 29.4257 14.0344 28.8914 13.6031 28.4601C13.1719 28.0289 12.6375 27.8132 12 27.8132C11.3625 27.8132 10.8281 28.0289 10.3969 28.4601C9.96562 28.8914 9.75 29.4257 9.75 30.0632C9.75 30.7007 9.96562 31.2351 10.3969 31.6664C10.8281 32.0976 11.3625 32.3132 12 32.3132ZM12 23.3132C12.6375 23.3132 13.1719 23.0976 13.6031 22.6664C14.0344 22.2351 14.25 21.7007 14.25 21.0632C14.25 20.4257 14.0344 19.8914 13.6031 19.4601C13.1719 19.0289 12.6375 18.8132 12 18.8132C11.3625 18.8132 10.8281 19.0289 10.3969 19.4601C9.96562 19.8914 9.75 20.4257 9.75 21.0632C9.75 21.7007 9.96562 22.2351 10.3969 22.6664C10.8281 23.0976 11.3625 23.3132 12 23.3132ZM12 14.3132C12.6375 14.3132 13.1719 14.0976 13.6031 13.6664C14.0344 13.2351 14.25 12.7007 14.25 12.0632C14.25 11.4257 14.0344 10.8914 13.6031 10.4601C13.1719 10.0289 12.6375 9.81323 12 9.81323C11.3625 9.81323 10.8281 10.0289 10.3969 10.4601C9.96562 10.8914 9.75 11.4257 9.75 12.0632C9.75 12.7007 9.96562 13.2351 10.3969 13.6664C10.8281 14.0976 11.3625 14.3132 12 14.3132ZM21 32.3132H30C30.6375 32.3132 31.1719 32.0976 31.6031 31.6664C32.0344 31.2351 32.25 30.7007 32.25 30.0632C32.25 29.4257 32.0344 28.8914 31.6031 28.4601C31.1719 28.0289 30.6375 27.8132 30 27.8132H21C20.3625 27.8132 19.8281 28.0289 19.3969 28.4601C18.9656 28.8914 18.75 29.4257 18.75 30.0632C18.75 30.7007 18.9656 31.2351 19.3969 31.6664C19.8281 32.0976 20.3625 32.3132 21 32.3132ZM21 23.3132H30C30.6375 23.3132 31.1719 23.0976 31.6031 22.6664C32.0344 22.2351 32.25 21.7007 32.25 21.0632C32.25 20.4257 32.0344 19.8914 31.6031 19.4601C31.1719 19.0289 30.6375 18.8132 30 18.8132H21C20.3625 18.8132 19.8281 19.0289 19.3969 19.4601C18.9656 19.8914 18.75 20.4257 18.75 21.0632C18.75 21.7007 18.9656 22.2351 19.3969 22.6664C19.8281 23.0976 20.3625 23.3132 21 23.3132ZM21 14.3132H30C30.6375 14.3132 31.1719 14.0976 31.6031 13.6664C32.0344 13.2351 32.25 12.7007 32.25 12.0632C32.25 11.4257 32.0344 10.8914 31.6031 10.4601C31.1719 10.0289 30.6375 9.81323 30 9.81323H21C20.3625 9.81323 19.8281 10.0289 19.3969 10.4601C18.9656 10.8914 18.75 11.4257 18.75 12.0632C18.75 12.7007 18.9656 13.2351 19.3969 13.6664C19.8281 14.0976 20.3625 14.3132 21 14.3132ZM5.25 41.3132C4.0125 41.3132 2.95312 40.8726 2.07187 39.9914C1.19062 39.1101 0.75 38.0507 0.75 36.8132V5.31323C0.75 4.07573 1.19062 3.01636 2.07187 2.13511C2.95312 1.25386 4.0125 0.813232 5.25 0.813232H36.75C37.9875 0.813232 39.0469 1.25386 39.9281 2.13511C40.8094 3.01636 41.25 4.07573 41.25 5.31323V36.8132C41.25 38.0507 40.8094 39.1101 39.9281 39.9914C39.0469 40.8726 37.9875 41.3132 36.75 41.3132H5.25ZM5.25 36.8132H36.75V5.31323H5.25V36.8132Z" fill="white" fill-opacity="0.7"/>
</svg>
