<svg width="31" height="31" viewBox="0 0 31 31" fill="none" xmlns="http://www.w3.org/2000/svg">
<path d="M2.14258 15.3954C2.14258 22.7934 8.13991 28.7908 15.538 28.7908C22.936 28.7908 28.9334 22.7934 28.9334 15.3954C28.9334 7.99733 22.936 2 15.538 2C8.13991 2 2.14258 7.99733 2.14258 15.3954Z" stroke="#333333" stroke-width="2.5" stroke-linecap="round" stroke-linejoin="round"/>
<path d="M16.8779 2.06607C16.8779 2.06607 20.8966 7.35809 20.8966 15.3953C20.8966 23.4325 16.8779 28.7247 16.8779 28.7247" stroke="#333333" stroke-width="2.5" stroke-linecap="round" stroke-linejoin="round"/>
<path d="M14.1983 28.7247C14.1983 28.7247 10.1797 23.4325 10.1797 15.3953C10.1797 7.35809 14.1983 2.06607 14.1983 2.06607" stroke="#333333" stroke-width="2.5" stroke-linecap="round" stroke-linejoin="round"/>
<path d="M2.9873 20.0838H28.0913" stroke="#333333" stroke-width="2.5" stroke-linecap="round" stroke-linejoin="round"/>
<path d="M2.9873 10.707H28.0913" stroke="#333333" stroke-width="2.5" stroke-linecap="round" stroke-linejoin="round"/>
</svg>
