<svg width="182" height="60" viewBox="0 0 182 60" fill="none" xmlns="http://www.w3.org/2000/svg">
<g clip-path="url(#clip0_28_2283)">
<path d="M53.2397 45.6223C51.9961 45.1807 51.7605 44.8864 51.7605 44.3798C51.7605 43.8733 52.1183 43.4707 52.9692 43.4707C53.5932 43.4707 54.0077 43.6741 54.4615 44.0465L54.9066 43.5053C54.383 43.0897 53.8506 42.8472 53.0128 42.8472C51.8521 42.8472 51.0667 43.436 51.0667 44.4231C51.0667 45.315 51.5205 45.7479 52.8645 46.2241C54.0033 46.6311 54.3481 46.9558 54.3481 47.5272C54.3481 48.181 53.8332 48.5879 53.0085 48.5879C52.367 48.5879 51.8259 48.2935 51.3547 47.8476L50.8965 48.3585C51.3852 48.852 52.1401 49.2157 52.9866 49.2157C54.2826 49.2157 55.0462 48.4624 55.0462 47.4969C55.0462 46.5315 54.623 46.1202 53.2441 45.6267L53.2397 45.6223Z" fill="#004289"/>
<path d="M57.8648 44.3928C57.2583 44.3928 56.7085 44.54 56.2983 44.7608L56.5514 45.2976C56.931 45.0768 57.3325 44.9426 57.8212 44.9426C58.5019 44.9426 58.8336 45.276 58.8336 45.9687V46.5142C58.5587 46.3626 58.1354 46.2458 57.6685 46.2458C56.7478 46.2458 55.8838 46.6873 55.8838 47.7264C55.8838 48.8433 56.6474 49.207 57.3718 49.207C58.0437 49.207 58.5019 48.8953 58.8336 48.5446V49.1118H59.4968V45.8821C59.4968 44.8084 58.8685 44.3841 57.8648 44.3841V44.3928ZM58.8336 47.9818C58.5499 48.3671 58.0961 48.6745 57.4939 48.6745C56.9223 48.6745 56.5383 48.3758 56.5383 47.6874C56.5383 47.1073 56.9485 46.7783 57.6336 46.7783C58.2008 46.7783 58.5281 46.8822 58.8336 47.0467V47.9861V47.9818Z" fill="#004289"/>
<path d="M66.191 46.4059V49.1161H66.8542V46.2977C66.8542 44.947 66.2608 44.3928 65.3095 44.3928C64.5503 44.3928 64.1706 44.7435 63.8957 45.1851C63.6732 44.7435 63.2761 44.3928 62.6172 44.3928C62.0674 44.3928 61.6747 44.6569 61.4347 45.0552V44.4924H60.7627V49.1204H61.4347V46.4103C61.4347 45.3842 61.8318 44.9643 62.4732 44.9643C63.1147 44.9643 63.4768 45.3496 63.4768 46.4103V49.1204H64.1445V46.4103C64.1445 45.3842 64.5503 44.9643 65.183 44.9643C65.855 44.9643 66.1866 45.3496 66.1866 46.4103L66.191 46.4059Z" fill="#004289"/>
<path d="M69.5294 46.4233C68.7396 46.0683 68.5039 45.9167 68.5039 45.5228C68.5039 45.1851 68.7832 44.9513 69.2763 44.9513C69.7694 44.9513 70.0748 45.0812 70.437 45.3669L70.8079 44.8777C70.4545 44.5876 69.957 44.3885 69.3199 44.3885C68.469 44.3885 67.8625 44.8647 67.8625 45.5661C67.8625 46.3064 68.2509 46.5878 69.189 46.9861C70.0137 47.3367 70.2886 47.5489 70.2886 47.9299C70.2886 48.3801 69.9876 48.6442 69.3461 48.6442C68.8836 48.6442 68.4472 48.458 68.0763 48.1333L67.6836 48.6139C68.1287 48.9689 68.6872 49.207 69.3287 49.207C70.1359 49.207 70.9257 48.813 70.9257 47.8996C70.9257 47.0727 70.4108 46.8172 69.525 46.4189L69.5294 46.4233Z" fill="#004289"/>
<path d="M74.8177 47.1939C74.8177 48.2069 74.3071 48.6355 73.6657 48.6355C72.9151 48.6355 72.5617 48.1896 72.5617 47.1939V44.4881H71.8984V47.3064C71.8984 48.6355 72.5486 49.2113 73.5304 49.2113C74.1195 49.2113 74.5515 48.9386 74.8177 48.549V49.1161H75.4853V44.4881H74.8177V47.1939Z" fill="#004289"/>
<path d="M80.1977 49.1161V46.2977C80.1977 44.9643 79.5475 44.3928 78.5613 44.3928C77.9766 44.3928 77.5403 44.6656 77.2784 45.0552V44.4924H76.6064V49.1204H77.2784V46.4103C77.2784 45.3972 77.7802 44.9643 78.4261 44.9643C79.1722 44.9643 79.53 45.4145 79.53 46.4103V49.1204H80.1977V49.1161Z" fill="#004289"/>
<path d="M82.2964 50.311L82.5102 50.8132C84.2425 50.7612 84.8709 50.0902 84.8709 48.6962V44.4837H84.2033V45.0032C83.876 44.6309 83.4746 44.3885 82.8898 44.3885C81.9124 44.3885 81.127 45.2327 81.127 46.8735C81.127 48.5143 81.8688 49.207 82.7982 49.207C83.4309 49.207 83.876 48.8953 84.2033 48.5446V48.7827C84.2033 49.8607 83.8498 50.2677 82.292 50.3067L82.2964 50.311ZM82.9684 48.6355C82.2309 48.6355 81.7858 48.0294 81.7858 46.8649C81.7858 45.6223 82.1655 44.96 82.9422 44.96C83.4964 44.96 83.9458 45.2673 84.2033 45.6526V47.9688C83.876 48.3758 83.4658 48.6355 82.9684 48.6355Z" fill="#004289"/>
<path d="M92.2285 45.986C92.2285 43.869 91.0241 42.9425 89.3921 42.9425H87.7471V49.1161H89.27C90.9325 49.1161 92.2285 48.2243 92.2285 45.986ZM88.4409 43.5659H89.3398C90.771 43.5659 91.5346 44.4318 91.5346 46.0076C91.5346 47.7827 90.6968 48.4883 89.3572 48.4883H88.4409V43.5659Z" fill="#004289"/>
<path d="M94.0045 45.0595V44.4881H93.3369V49.1161H94.0045V46.3973C94.0045 45.5141 94.3711 44.9989 95.0213 44.9989C95.3311 44.9989 95.5318 45.0682 95.7194 45.1764L95.8852 44.5097C95.7282 44.4404 95.5056 44.3971 95.1565 44.3971C94.6547 44.3971 94.214 44.6959 94.0045 45.0639V45.0595Z" fill="#004289"/>
<path d="M99.8731 48.6745L99.5589 48.1983C99.1313 48.4797 98.8128 48.6399 98.2673 48.6399C97.5081 48.6399 97.0324 48.0121 96.9713 47.0294H100.078C100.1 46.9211 100.109 46.8259 100.109 46.67C100.109 45.3496 99.4455 44.3971 98.228 44.3971C97.1197 44.3971 96.3037 45.3106 96.3037 46.7783C96.3037 48.6009 97.3422 49.2157 98.1975 49.2157C98.9 49.2157 99.3102 49.0295 99.8731 48.6788V48.6745ZM98.228 44.9643C99.044 44.9643 99.4368 45.592 99.4891 46.4882H96.9713C97.0499 45.4535 97.5342 44.9643 98.228 44.9643Z" fill="#004289"/>
<path d="M102.334 49.2113C103.002 49.2113 103.46 48.8996 103.787 48.549V49.1161H104.455V45.8864C104.455 44.8128 103.826 44.3885 102.823 44.3885C102.216 44.3885 101.666 44.5357 101.256 44.7565L101.505 45.2933C101.889 45.0725 102.286 44.9383 102.775 44.9383C103.46 44.9383 103.787 45.2717 103.787 45.9644V46.5098C103.512 46.3583 103.093 46.2414 102.626 46.2414C101.701 46.2414 100.833 46.683 100.833 47.7221C100.833 48.839 101.601 49.2027 102.33 49.2027L102.334 49.2113ZM102.592 46.7739C103.159 46.7739 103.49 46.8778 103.792 47.0424V47.9818C103.508 48.3671 103.054 48.6745 102.452 48.6745C101.885 48.6745 101.496 48.3758 101.496 47.6874C101.496 47.1073 101.911 46.7783 102.592 46.7783V46.7739Z" fill="#004289"/>
<path d="M111.148 46.4059V49.1161H111.816V46.2977C111.816 44.947 111.222 44.3928 110.271 44.3928C109.516 44.3928 109.132 44.7435 108.862 45.1851C108.639 44.7435 108.242 44.3928 107.583 44.3928C107.029 44.3928 106.641 44.6569 106.401 45.0552V44.4924H105.737V49.1204H106.401V46.4103C106.401 45.3842 106.802 44.9643 107.443 44.9643C108.085 44.9643 108.451 45.3496 108.451 46.4103V49.1204H109.115V46.4103C109.115 45.3842 109.521 44.9643 110.158 44.9643C110.83 44.9643 111.161 45.3496 111.161 46.4103L111.148 46.4059Z" fill="#004289"/>
<path d="M53.2397 54.8048C51.9917 54.3632 51.7648 54.0732 51.7648 53.5623C51.7648 53.0514 52.1226 52.6575 52.9735 52.6575C53.5975 52.6575 54.0164 52.8566 54.4659 53.2289L54.911 52.6921C54.3873 52.2808 53.8506 52.034 53.0172 52.034C51.8521 52.034 51.071 52.6142 51.071 53.6099C51.071 54.5018 51.5248 54.9304 52.8688 55.4066C54.0077 55.8179 54.3524 56.1382 54.3524 56.714C54.3524 57.3634 53.8375 57.7704 53.0085 57.7704C52.367 57.7704 51.8259 57.476 51.3547 57.0301L50.8965 57.5409C51.3852 58.0345 52.1401 58.3938 52.9866 58.3938C54.2826 58.3938 55.0419 57.6448 55.0419 56.6751C55.0419 55.7053 54.6186 55.2984 53.2441 54.8048H53.2397Z" fill="#004289"/>
<path d="M57.8742 54.1468C58.3455 54.1468 58.6553 54.3113 58.9913 54.6143L59.3927 54.1208C59.0262 53.8004 58.5418 53.571 57.9179 53.571C56.9404 53.571 55.9062 54.294 55.9062 56.004C55.9062 57.6189 56.8444 58.3895 57.8699 58.3895C58.5244 58.3895 58.9782 58.1427 59.3709 57.7444L58.9695 57.3245C58.6509 57.6319 58.3498 57.8137 57.896 57.8137C57.0713 57.8137 56.5782 57.082 56.5782 55.9434C56.5782 54.8048 57.1411 54.1381 57.8699 54.1381L57.8742 54.1468Z" fill="#004289"/>
<path d="M62.242 53.5753C61.6573 53.5753 61.2165 53.848 60.9504 54.2377V52.0644H60.2871V58.3072H60.9504V55.5971C60.9504 54.584 61.4609 54.1511 62.1067 54.1511C62.8572 54.1511 63.2107 54.597 63.2107 55.5971V58.3072H63.8783V55.4802C63.8783 54.1511 63.2282 53.5753 62.242 53.5753Z" fill="#004289"/>
<path d="M66.8542 53.5753C65.7197 53.5753 64.8164 54.4195 64.8164 55.991C64.8164 57.5626 65.6848 58.3981 66.8193 58.3981C67.9538 58.3981 68.8658 57.528 68.8658 55.9564C68.8658 54.3849 67.9887 53.5753 66.8542 53.5753ZM66.8411 57.8223C66.0295 57.8223 65.484 57.1903 65.484 55.9737C65.484 54.7572 66.0295 54.1511 66.8411 54.1511C67.6527 54.1511 68.1982 54.7572 68.1982 55.9737C68.1982 57.1903 67.6484 57.8223 66.8411 57.8223Z" fill="#004289"/>
<path d="M70.5368 52.06H69.8691V58.3029H70.5368V52.06Z" fill="#004289"/>
<path d="M73.587 53.5753C72.9805 53.5753 72.4307 53.7268 72.0249 53.9476L72.2736 54.4888C72.6576 54.268 73.0591 54.1338 73.5478 54.1338C74.2285 54.1338 74.5601 54.4715 74.5601 55.1555V55.7053C74.2852 55.5538 73.8663 55.4369 73.3994 55.4369C72.4743 55.4369 71.6104 55.8785 71.6104 56.9218C71.6104 58.0388 72.374 58.3981 73.1027 58.3981C73.7703 58.3981 74.2285 58.0908 74.5601 57.7401V58.3072H75.2277V55.0819C75.2277 53.9996 74.595 53.5796 73.5914 53.5796L73.587 53.5753ZM74.5558 57.1643C74.2765 57.5453 73.8139 57.857 73.2161 57.857C72.6489 57.857 72.2649 57.5583 72.2649 56.8699C72.2649 56.2854 72.6751 55.9651 73.3601 55.9651C73.9274 55.9651 74.2547 56.0603 74.5558 56.2292V57.1643Z" fill="#004289"/>
<path d="M77.1608 54.2463V53.6662H76.4932V58.2986H77.1608V55.5798C77.1608 54.7009 77.5186 54.1771 78.1731 54.1771C78.4873 54.1771 78.688 54.2463 78.8757 54.3546L79.0458 53.6835C78.8844 53.6142 78.6662 53.5666 78.3171 53.5666C77.8197 53.5666 77.3702 53.8653 77.1652 54.242L77.1608 54.2463Z" fill="#004289"/>
<path d="M81.6031 55.6101C80.8133 55.2551 80.5733 55.0949 80.5733 54.7096C80.5733 54.3762 80.8569 54.1381 81.3456 54.1381C81.8343 54.1381 82.1485 54.2723 82.5107 54.5537L82.8816 54.0688C82.5238 53.7788 82.0307 53.5753 81.3893 53.5753C80.5427 53.5753 79.9275 54.0515 79.9275 54.7572C79.9275 55.4629 80.3202 55.7789 81.254 56.1729C82.0787 56.5236 82.3536 56.74 82.3536 57.1167C82.3536 57.5712 82.0525 57.831 81.4154 57.831C80.9485 57.831 80.5166 57.6448 80.1413 57.3201L79.7529 57.805C80.198 58.16 80.7565 58.3938 81.398 58.3938C82.2052 58.3938 82.9951 57.9955 82.9951 57.0907C82.9951 56.2595 82.4802 56.0084 81.5987 55.6101H81.6031Z" fill="#004289"/>
<path d="M86.0403 53.5753C85.4468 53.5753 85.0149 53.848 84.7487 54.2377V52.0644H84.0811V58.3072H84.7487V55.5971C84.7487 54.584 85.2549 54.1511 85.905 54.1511C86.6512 54.1511 87.0046 54.597 87.0046 55.5971V58.3072H87.6723V55.4802C87.6723 54.1511 87.0265 53.5753 86.0403 53.5753Z" fill="#004289"/>
<path d="M89.6535 53.6662H88.9902V58.2986H89.6535V53.6662Z" fill="#004289"/>
<path d="M89.3349 51.8998C89.0644 51.8998 88.8506 52.112 88.8506 52.3804C88.8506 52.6488 89.0644 52.848 89.3349 52.848C89.5837 52.848 89.7975 52.6315 89.7975 52.3804C89.7975 52.112 89.5837 51.8998 89.3349 51.8998Z" fill="#004289"/>
<path d="M93.0707 53.5753C92.4424 53.5753 91.9973 53.887 91.6657 54.2377V53.6705H90.998V60.0043H91.6657V57.7834C91.9929 58.1514 92.3944 58.3981 92.9835 58.3981C93.9565 58.3981 94.742 57.5496 94.742 55.9131C94.742 54.2766 94.0002 53.5753 93.0707 53.5753ZM92.9267 57.8223C92.3769 57.8223 91.9231 57.515 91.6657 57.1253V54.8135C91.9929 54.4108 92.4031 54.1468 92.9006 54.1468C93.6424 54.1468 94.0875 54.7529 94.0875 55.9174C94.0875 57.16 93.7035 57.818 92.9311 57.818L92.9267 57.8223Z" fill="#004289"/>
<path d="M98.2719 52.7527H101.23V52.1293H97.5781V58.3029H98.2719V55.4239H99.9781V54.8005H98.2719V52.7527Z" fill="#004289"/>
<path d="M103.255 53.5753C102.121 53.5753 101.213 54.4195 101.213 55.991C101.213 57.5626 102.086 58.3981 103.22 58.3981C104.355 58.3981 105.267 57.528 105.267 55.9564C105.267 54.3849 104.398 53.5753 103.255 53.5753ZM103.238 57.8223C102.426 57.8223 101.889 57.1903 101.889 55.9737C101.889 54.7572 102.43 54.1511 103.238 54.1511C104.045 54.1511 104.599 54.7572 104.599 55.9737C104.599 57.1903 104.049 57.8223 103.238 57.8223Z" fill="#004289"/>
<path d="M108.945 56.3764C108.945 57.3894 108.443 57.8224 107.793 57.8224C107.046 57.8224 106.689 57.3764 106.689 56.3764V53.6662H106.025V56.4889C106.025 57.818 106.676 58.3938 107.662 58.3938C108.242 58.3938 108.678 58.1254 108.945 57.7358V58.3029H109.617V53.6705H108.945V56.3807V56.3764Z" fill="#004289"/>
<path d="M112.689 53.5753C112.105 53.5753 111.668 53.848 111.402 54.2377V53.6705H110.734V58.3029H111.402V55.5928C111.402 54.5797 111.908 54.1468 112.558 54.1468C113.305 54.1468 113.658 54.5927 113.658 55.5928V58.3029H114.326V55.4759C114.326 54.1468 113.675 53.571 112.689 53.571V53.5753Z" fill="#004289"/>
<path d="M118.335 54.1944C118.003 53.8221 117.606 53.571 117.017 53.571C116.04 53.571 115.259 54.4152 115.259 56.0603C115.259 57.7055 115.996 58.3938 116.93 58.3938C117.563 58.3938 118.003 58.0864 118.331 57.7358V58.3029H118.998V52.06H118.331V54.1944H118.335ZM118.335 57.1513C118.003 57.5539 117.598 57.818 117.1 57.818C116.363 57.818 115.918 57.2119 115.918 56.0473C115.918 54.8005 116.297 54.1424 117.074 54.1424C117.624 54.1424 118.073 54.4498 118.335 54.8394V57.147V57.1513Z" fill="#004289"/>
<path d="M121.826 53.5753C121.224 53.5753 120.674 53.7268 120.264 53.9476L120.508 54.4888C120.892 54.268 121.294 54.1338 121.783 54.1338C122.463 54.1338 122.791 54.4715 122.791 55.1555V55.7053C122.516 55.5538 122.097 55.4369 121.626 55.4369C120.705 55.4369 119.841 55.8785 119.841 56.9218C119.841 58.0388 120.609 58.3981 121.338 58.3981C122.005 58.3981 122.463 58.0908 122.791 57.7401V58.3072H123.458V55.0819C123.458 53.9996 122.83 53.5796 121.822 53.5796L121.826 53.5753ZM122.791 57.1643C122.507 57.5453 122.058 57.857 121.447 57.857C120.884 57.857 120.504 57.5583 120.504 56.8699C120.504 56.2854 120.91 55.9651 121.595 55.9651C122.162 55.9651 122.494 56.0603 122.791 56.2292V57.1643Z" fill="#004289"/>
<path d="M125.588 52.06H124.916V53.6662H124.34V54.2247H124.916V57.3461C124.916 58.1124 125.23 58.3895 125.81 58.3895C126.159 58.3895 126.408 58.3375 126.666 58.2336L126.714 57.6622C126.5 57.7488 126.325 57.792 126.055 57.792C125.701 57.792 125.588 57.6492 125.588 57.2379V54.2247H126.744V53.6662H125.588V52.06Z" fill="#004289"/>
<path d="M128.258 51.8998C127.983 51.8998 127.765 52.112 127.765 52.3804C127.765 52.6488 127.983 52.848 128.258 52.848C128.506 52.848 128.716 52.6315 128.716 52.3804C128.716 52.112 128.502 51.8998 128.258 51.8998Z" fill="#004289"/>
<path d="M128.577 53.6662H127.909V58.2986H128.577V53.6662Z" fill="#004289"/>
<path d="M131.622 53.5753C130.488 53.5753 129.58 54.4195 129.58 55.991C129.58 57.5626 130.448 58.3981 131.587 58.3981C132.726 58.3981 133.629 57.528 133.629 55.9564C133.629 54.3849 132.757 53.5753 131.622 53.5753ZM131.605 57.8223C130.798 57.8223 130.252 57.1903 130.252 55.9737C130.252 54.7572 130.798 54.1511 131.605 54.1511C132.412 54.1511 132.966 54.7572 132.966 55.9737C132.966 57.1903 132.416 57.8223 131.605 57.8223Z" fill="#004289"/>
<path d="M136.549 53.5753C135.964 53.5753 135.528 53.848 135.257 54.2377V53.6705H134.59V58.3029H135.257V55.5928C135.257 54.5797 135.764 54.1468 136.414 54.1468C137.16 54.1468 137.518 54.5927 137.518 55.5928V58.3029H138.181V55.4759C138.181 54.1468 137.531 53.571 136.549 53.571V53.5753Z" fill="#004289"/>
<path d="M76.5679 30.7901C73.8886 30.7944 71.6807 32.8725 71.6807 35.4787C71.6807 38.085 73.8886 40.1414 76.5679 40.1501C79.2733 40.1414 81.4594 38.059 81.4594 35.4787C81.4594 32.8985 79.2733 30.7944 76.5679 30.7901ZM76.5024 38.0114C75.1017 38.0114 74.0457 36.8771 74.0457 35.4787C74.0457 34.0804 75.1759 32.9245 76.5722 32.9245C77.9686 32.9245 79.0595 34.0587 79.0595 35.4787C79.0595 36.8988 77.9162 38.0114 76.5068 38.0114H76.5024Z" fill="#004289"/>
<path d="M54.1433 27.5648C54.8895 28.2964 55.7447 28.9372 56.5869 29.3484L56.6742 29.3961L58.1185 27.7033L57.9789 27.6254C56.6087 26.8894 55.5353 25.9586 54.8327 24.7853C54.1346 23.6294 53.7768 22.2873 53.7768 20.6811V19.1745H51.1935V20.521C51.1935 22.2613 50.7964 23.6294 50.0503 24.8286C49.2168 26.1577 47.9819 27.2271 46.4023 28.2185L46.2627 28.3051L47.8292 29.9156L47.9165 29.868C48.8503 29.3658 49.8408 28.5908 50.7004 27.7249C51.4466 26.9673 52.0924 26.1577 52.4851 25.3914C52.8648 26.1447 53.4451 26.911 54.1433 27.5691V27.5648Z" fill="#004289"/>
<path d="M51.3467 39.0418H62.1596V31.7122H51.3467V39.0418ZM53.7772 33.7817H59.7291V36.9724H53.7772V33.7817Z" fill="#004289"/>
<path d="M87.3984 39.0418H99.6252V31.7122H87.3984V39.0418ZM89.8028 33.7817H97.2252V36.9724H89.8028V33.7817Z" fill="#004289"/>
<path d="M62.2032 18.7416H59.7988V30.8724H62.2032V25.504H65.0177V23.348H62.2032V18.7416Z" fill="#004289"/>
<path d="M112.053 28.1839C112.842 28.8636 113.746 29.435 114.597 29.803L114.684 29.842L115.984 28.0973L115.845 28.028C114.605 27.4002 113.501 26.621 112.707 25.6685C111.9 24.6988 111.42 23.5298 111.42 22.1228V21.7115H114.998V19.6248H105.285V21.7115H108.858V22.2137C108.858 23.4952 108.431 24.6901 107.72 25.7248C106.886 26.9673 105.669 27.9674 104.486 28.6168L104.329 28.699L105.926 30.3399L106.013 30.2966C106.873 29.8117 107.824 29.08 108.636 28.2574C109.286 27.5821 109.871 26.8677 110.229 26.1534C110.661 26.8461 111.324 27.5388 112.057 28.1839H112.053Z" fill="#004289"/>
<path d="M129.441 33.8293H138.182V39.0375H140.608V31.7599H129.441V33.8293Z" fill="#004289"/>
<path d="M135.472 25.4867C135.472 24.3394 134.953 23.2831 134.185 22.4778H136.585V20.4127H132.003V18.1398H129.398V20.4127H124.707V22.4778H127.159C126.409 23.2831 125.89 24.3308 125.89 25.4867C125.89 28.0453 128.015 30.1234 130.672 30.132C133.329 30.1234 135.468 28.0453 135.472 25.4867ZM128.207 25.3914C128.207 23.9758 129.411 22.7765 130.672 22.7765C131.933 22.7765 133.133 23.9801 133.137 25.3914C133.137 26.7855 131.933 27.989 130.672 27.9934C129.407 27.989 128.211 26.7855 128.207 25.3914Z" fill="#004289"/>
<path d="M140.607 18.7416H138.207V30.9157H140.607V26.2703H143.43V24.1143H140.607V18.7416Z" fill="#004289"/>
<path d="M120.243 18.7416H117.843V30.9157H120.243V25.504H123.062V23.348H120.243V18.7416Z" fill="#004289"/>
<path d="M79.5044 22.3523H75.7256V24.4866H79.5044V31.301H81.9088V18.7416H79.5044V22.3523Z" fill="#004289"/>
<path d="M73.3993 27.8808C74.1499 28.6081 75.0269 29.2489 75.8648 29.6818L75.9564 29.7337L77.4007 28.041L77.2611 27.9631C75.8909 27.2487 74.8393 26.3222 74.1324 25.1663C73.4168 24.0191 73.059 22.625 73.059 21.0188V19.1745H70.4714V20.863C70.4714 22.6034 70.0787 23.9671 69.3499 25.1447C68.5209 26.4954 67.2598 27.5734 65.6802 28.5562L65.5449 28.6428L67.1202 30.2576L67.1987 30.2056C68.1282 29.6991 69.0969 28.9675 69.9565 28.1319C70.7332 27.3656 71.379 26.5301 71.7717 25.7291C72.1426 26.4608 72.7099 27.2054 73.3993 27.8851V27.8808Z" fill="#004289"/>
<path d="M115.089 30.7901C112.41 30.7944 110.202 32.8725 110.197 35.4787C110.202 38.059 112.405 40.1414 115.089 40.1501C117.79 40.1414 119.98 38.059 119.98 35.4787C119.98 32.8985 117.79 30.7944 115.089 30.7901ZM115.019 38.0114C113.623 38.0114 112.558 36.8771 112.558 35.4787C112.558 34.0804 113.684 32.9245 115.089 32.9245C116.494 32.9245 117.572 34.0587 117.576 35.4787C117.576 36.8728 116.428 38.0114 115.019 38.0114Z" fill="#004289"/>
<path d="M90.3255 25.6988H92.7298V19.5036H86.2412V21.5643H90.3255V25.6988Z" fill="#004289"/>
<path d="M97.5438 25.6988H99.9525V19.5036H93.4639V21.5643H97.5438V25.6988Z" fill="#004289"/>
<path d="M158.83 24.2269H156.81V19.0793H154.536V38.5179H156.81V26.5647H158.83V39.0375H161.186V18.7416H158.83V24.2269Z" fill="#004289"/>
<path d="M151.203 26.9154C150.662 25.7421 150.439 24.4303 150.439 22.8198V22.0535H153.166V19.8672H145.242V22.0535H148.056V22.8631C148.056 24.387 147.856 25.6339 147.371 26.7898C146.808 28.1189 145.862 29.3138 144.352 30.5953L144.247 30.6905L145.739 32.1582L145.831 32.0889C146.582 31.5391 147.367 30.7425 148.022 29.9199C148.576 29.2272 149.043 28.5086 149.335 27.8765C149.636 28.4912 150.107 29.1969 150.657 29.855C151.294 30.6256 152.014 31.3572 152.704 31.7945L152.795 31.8551L154.052 30.3658L153.952 30.2749C152.599 29.106 151.761 28.0626 151.211 26.911L151.203 26.9154Z" fill="#004289"/>
<path d="M84.2305 28.5821H92.2114V30.894H94.8165V28.5821H102.924V26.5084H84.2305V28.5821Z" fill="#004289"/>
<path d="M174.874 27.9198H166.749V21.7851H172.937V19.6248H164.314V30.0152H174.874V27.9198Z" fill="#004289"/>
<path d="M170.279 32.5695H167.849V39.0374H179.216V36.9074H170.279V32.5695Z" fill="#004289"/>
<path d="M179.16 24.3611V18.7373H176.76V33.7124H179.16V26.5171H182V24.3611H179.16Z" fill="#004289"/>
<path d="M50.9704 12.4771L44.7436 9.91847L50.9704 7.35984L49.8621 4.71463L43.6396 7.27325L46.2185 1.09532L43.548 0L40.9735 6.17794L38.3946 0L35.7241 1.09532L38.303 7.27325L32.0805 4.71463L30.9766 7.35984L37.199 9.91847L30.9766 12.4771L32.0805 15.1223L38.303 12.5637L35.7241 18.7416L38.3946 19.8369L40.9735 13.6633L43.548 19.8369L46.2185 18.7373L43.6396 12.5637L49.8621 15.1223L50.9704 12.4771Z" fill="#009FE3"/>
<path d="M10.6818 29.7121H14.8229V18.7416H0.663086V22.4389H10.6818V29.7121Z" fill="#009FE3"/>
<path d="M26.8361 29.7121H30.9772V18.7416H16.8174V22.4389H26.8361V29.7121Z" fill="#009FE3"/>
<path d="M0 35.3878H26.8359V41.0376H30.977V31.6906H0V35.3878Z" fill="#009FE3"/>
<path d="M10.0186 58.3029H30.9768V42.9382H10.0186V58.3029ZM14.1596 46.6354H26.8401V54.6057H14.1596V46.6354Z" fill="#009FE3"/>
</g>
<defs>
<clipPath id="clip0_28_2283">
<rect width="182" height="60" fill="white"/>
</clipPath>
</defs>
</svg>
