<svg width="19" height="17" viewBox="0 0 19 17" fill="none" xmlns="http://www.w3.org/2000/svg">
<path d="M19 1.18752C19 0.531675 18.4683 0 17.8125 0H1.18724C0.531371 0 -0.00028038 0.531675 -0.00028038 1.18752C-0.00028038 1.84336 0.531371 2.37504 1.18724 2.37504H17.8125C18.4683 2.37504 19 1.84336 19 1.18752Z" fill="white"/>
<path d="M19 15.4377C19 14.7819 18.4683 14.2502 17.8125 14.2502H1.18724C0.531371 14.2502 -0.00028038 14.7819 -0.00028038 15.4377C-0.00028038 16.0936 0.531371 16.6252 1.18724 16.6252H17.8125C18.4683 16.6252 19 16.0936 19 15.4377Z" fill="white"/>
<path d="M17.8125 7.12511C18.4683 7.12511 19 7.65676 19 8.31262C19 8.96849 18.4683 9.50014 17.8125 9.50014H8.31234C7.65648 9.50014 7.12483 8.96849 7.12483 8.31262C7.12483 7.65676 7.65648 7.12511 8.31234 7.12511H17.8125Z" fill="white"/>
</svg>
