<svg width="24" height="24" viewBox="0 0 24 24" fill="none" xmlns="http://www.w3.org/2000/svg">
<path d="M11.9998 9.05001C11.8665 9.05001 11.7415 9.07084 11.6248 9.11251C11.5081 9.15417 11.3998 9.22501 11.2998 9.32501L6.6998 13.925C6.51647 14.1083 6.4248 14.3417 6.4248 14.625C6.4248 14.9083 6.51647 15.1417 6.6998 15.325C6.88314 15.5083 7.11647 15.6 7.3998 15.6C7.68314 15.6 7.91647 15.5083 8.0998 15.325L11.9998 11.425L15.8998 15.325C16.0831 15.5083 16.3165 15.6 16.5998 15.6C16.8831 15.6 17.1165 15.5083 17.2998 15.325C17.4831 15.1417 17.5748 14.9083 17.5748 14.625C17.5748 14.3417 17.4831 14.1083 17.2998 13.925L12.6998 9.32501C12.5998 9.22501 12.4915 9.15417 12.3748 9.11251C12.2581 9.07084 12.1331 9.05001 11.9998 9.05001Z" fill="black" fill-opacity="0.5"/>
</svg>
