<svg width="24" height="24" viewBox="0 0 24 24" fill="none" xmlns="http://www.w3.org/2000/svg">
<path d="M11.9998 14.95C11.8665 14.95 11.7415 14.9292 11.6248 14.8875C11.5081 14.8458 11.3998 14.775 11.2998 14.675L6.6998 10.075C6.51647 9.89167 6.4248 9.65833 6.4248 9.375C6.4248 9.09167 6.51647 8.85833 6.6998 8.675C6.88314 8.49167 7.11647 8.4 7.3998 8.4C7.68314 8.4 7.91647 8.49167 8.0998 8.675L11.9998 12.575L15.8998 8.675C16.0831 8.49167 16.3165 8.4 16.5998 8.4C16.8831 8.4 17.1165 8.49167 17.2998 8.675C17.4831 8.85833 17.5748 9.09167 17.5748 9.375C17.5748 9.65833 17.4831 9.89167 17.2998 10.075L12.6998 14.675C12.5998 14.775 12.4915 14.8458 12.3748 14.8875C12.2581 14.9292 12.1331 14.95 11.9998 14.95Z" fill="black" fill-opacity="0.2"/>
</svg>
