<svg width="17" height="17" viewBox="0 0 17 17" fill="none" xmlns="http://www.w3.org/2000/svg">
<path d="M13.0121 7.53338H8.90297V3.42424C8.90297 3.2426 8.83082 3.06841 8.70238 2.93997C8.57395 2.81153 8.39975 2.73938 8.21812 2.73938C8.03648 2.73938 7.86229 2.81153 7.73385 2.93997C7.60541 3.06841 7.53326 3.2426 7.53326 3.42424V7.53338H3.42412C3.24248 7.53338 3.06828 7.60554 2.93985 7.73397C2.81141 7.86241 2.73926 8.0366 2.73926 8.21824C2.73926 8.39987 2.81141 8.57407 2.93985 8.70251C3.06828 8.83094 3.24248 8.9031 3.42412 8.9031H7.53326V13.0122C7.53326 13.1939 7.60541 13.3681 7.73385 13.4965C7.86229 13.6249 8.03648 13.6971 8.21812 13.6971C8.39975 13.6971 8.57395 13.6249 8.70238 13.4965C8.83082 13.3681 8.90297 13.1939 8.90297 13.0122V8.9031H13.0121C13.1938 8.9031 13.368 8.83094 13.4964 8.70251C13.6248 8.57407 13.697 8.39987 13.697 8.21824C13.697 8.0366 13.6248 7.86241 13.4964 7.73397C13.368 7.60554 13.1938 7.53338 13.0121 7.53338Z" fill="white"/>
</svg>
