<svg width="67" height="66" viewBox="0 0 67 66" fill="none" xmlns="http://www.w3.org/2000/svg">
<g clip-path="url(#clip0_21_702)">
<path d="M51.0062 50.1875V34.4896C51.0062 27.6146 46.8208 21.5417 40.7728 18.9062V14.4375C40.7728 13.6354 40.0714 12.9479 39.255 12.9479H37.7487V4.35417C37.7487 1.94792 35.7711 0 33.4484 0C31.1258 0 29.1366 1.94792 29.1366 4.35417V12.9479H27.6303C26.814 12.9479 26.1126 13.6354 26.1126 14.4375V18.9062C20.0645 21.6562 15.8792 27.6146 15.8792 34.4896V50.1875C13.4416 50.1875 11.4639 52.1354 11.4639 54.5417C11.4639 56.9479 13.4416 58.8958 15.8792 58.8958H26.1126C26.1126 62.7917 29.3781 66 33.3334 66C37.2888 66 40.5428 62.7917 40.5428 58.8958H50.6612C53.0988 58.8958 54.9616 56.9479 54.9616 54.5417C55.433 52.1354 53.4553 50.1875 51.0062 50.1875ZM33.6784 2.86458C34.4948 2.86458 35.1847 3.55208 35.1847 4.35417V12.9479H32.2756V4.35417H32.1606C32.1606 3.55208 32.862 2.86458 33.6784 2.86458ZM29.2631 15.8125H37.9787V17.7604C35.1846 17.0729 32.1606 17.0729 29.2631 17.7604V15.8125ZM19.0182 47.3229H42.2905C43.0954 47.3229 43.7968 46.6354 43.7968 45.9479C43.7968 45.1458 43.0954 44.4583 42.2905 44.4583H19.0182V34.375C19.0182 26.4688 25.5377 20.0521 33.5634 20.0521C41.5891 20.0521 48.0971 26.5833 48.0971 34.4896V50.1875H19.0182V47.3229ZM33.5634 63.1354C31.1143 63.1354 29.2631 61.1875 29.2631 58.7812H37.9787C37.9787 61.1875 36.001 63.1354 33.5634 63.1354ZM51.0062 55.9167H16.1091C15.3043 55.9167 14.6029 55.2292 14.6029 54.4271C14.6029 53.625 15.3043 52.9375 16.1091 52.9375H51.0062C51.8225 52.9375 52.5239 53.625 52.5239 54.4271C52.5239 55.2292 51.8225 55.9167 51.0062 55.9167Z" fill="#333333"/>
<path d="M33.5629 25.8959C29.6075 25.8959 26.3535 29.1042 26.3535 33C26.3535 36.8959 29.6075 40.2188 33.5629 40.2188C37.5183 40.2188 40.7723 37.0105 40.7723 33C40.8872 29.1042 37.6332 25.8959 33.5629 25.8959ZM33.5629 37.3542C31.1138 37.3542 29.2626 35.4063 29.2626 33C29.2626 30.5938 31.2288 28.7605 33.5629 28.7605C35.897 28.7605 37.8632 30.7084 37.8632 33C37.9782 35.4063 36.0005 37.3542 33.5629 37.3542Z" fill="#333333"/>
<path d="M37.8633 33C37.9783 35.4062 36.0006 37.3541 33.563 37.3541C31.1254 37.3541 29.2627 35.4062 29.2627 33C29.2627 30.5937 31.2289 28.7604 33.563 28.7604C35.8972 28.7604 37.8633 30.7083 37.8633 33Z" fill="#07A2E4"/>
<path d="M12.7399 39.1875C13.3263 38.6146 13.3263 37.6979 12.7399 37.125C11.5786 35.9792 11.5786 34.1458 12.7399 33C13.3263 32.4271 13.3263 31.5104 12.7399 30.9375C12.1535 30.3646 11.2222 30.3646 10.6473 30.9375C8.32461 33.2292 8.32461 36.8958 10.6473 39.1875C11.3486 39.7604 12.28 39.7604 12.7399 39.1875Z" fill="#333333"/>
<path d="M9.60052 29.9063C10.1869 29.3333 10.1869 28.4167 9.60052 27.8438C9.01411 27.2708 8.08276 27.2708 7.50785 27.8438C3.43749 31.8542 3.43749 38.2708 7.50785 42.2813C8.09426 42.8542 9.02561 42.8542 9.60052 42.2813C10.1869 41.7083 10.1869 40.7917 9.60052 40.2188C6.69148 37.4687 6.69148 32.7708 9.60052 29.9063Z" fill="#333333"/>
<path d="M6.45038 43.4271C1.79361 38.8438 1.79361 31.3959 6.45038 26.9271C7.03679 26.3542 7.03679 25.4375 6.45038 24.8646C5.86397 24.2917 4.93262 24.2917 4.35771 24.8646C-1.46038 30.5938 -1.46038 39.7605 4.35771 45.4896C4.94412 46.0625 5.87547 46.0625 6.45038 45.4896C7.03679 44.9167 7.03679 44 6.45038 43.4271Z" fill="#333333"/>
<path d="M56.3528 31.0521C55.7664 30.4792 54.835 30.4792 54.2601 31.0521C53.6737 31.625 53.6737 32.5417 54.2601 33.1146C55.4214 34.2605 55.4214 36.0938 54.2601 37.2396C53.6737 37.8125 53.6737 38.7292 54.2601 39.3021C54.8465 39.875 55.7779 39.875 56.3528 39.3021C58.6754 37.0105 58.6754 33.2292 56.3528 31.0521Z" fill="#333333"/>
<path d="M59.4915 27.9584C58.9051 27.3855 57.9737 27.3855 57.3988 27.9584C56.8124 28.5313 56.8124 29.448 57.3988 30.0209C60.3078 32.8855 60.3078 37.4688 57.3988 40.3334C56.8124 40.9063 56.8124 41.823 57.3988 42.3959C57.9852 42.9688 58.9166 42.9688 59.4915 42.3959C63.5618 38.3855 63.5618 31.8542 59.4915 27.9584Z" fill="#333333"/>
<path d="M62.6311 45.375C68.4492 39.6458 68.4492 30.4792 62.6311 24.75C62.0447 24.1771 61.1248 24.1771 60.5384 24.75C59.952 25.3229 59.952 26.2396 60.5384 26.8125C65.1952 31.3958 65.1952 38.8437 60.5384 43.3125C59.952 43.8854 59.952 44.8021 60.5384 45.375C61.2398 45.9479 62.0447 45.9479 62.6311 45.375Z" fill="#333333"/>
<path d="M10.3028 12.8334C7.85367 12.8334 5.87598 14.7813 5.87598 17.1875C5.99096 19.5938 7.85367 21.5417 10.3028 21.5417C12.7519 21.5417 14.6031 19.5938 14.6031 17.1875C14.6031 14.7813 12.6254 12.8334 10.3028 12.8334ZM10.3028 18.7917C9.48641 18.7917 8.78502 18.1042 8.78502 17.3021C8.9 16.5 9.48641 15.8125 10.3028 15.8125C11.1192 15.8125 11.6941 16.5 11.6941 17.3021C11.6941 18.1042 10.9927 18.7917 10.3028 18.7917Z" fill="#333333"/>
<path d="M11.6932 17.3021C11.6932 18.1042 10.9918 18.7917 10.3019 18.7917C9.48557 18.7917 8.78418 18.1042 8.78418 17.3021C8.89916 16.5 9.48557 15.8125 10.3019 15.8125C11.1183 15.8125 11.6932 16.5 11.6932 17.3021Z" fill="#07A2E4"/>
<path d="M60.4347 58.7812C58.457 58.7812 56.8242 60.3854 56.8242 62.3333C56.8242 64.2813 58.457 65.8854 60.4347 65.8854C62.4123 65.8854 64.0336 64.2813 64.0336 62.3333C64.0336 60.3854 62.5273 58.7812 60.4347 58.7812ZM60.4347 63.1354C60.0782 63.1354 59.7333 62.7917 59.7333 62.4479C59.7333 62.1042 60.0782 61.7604 60.4347 61.7604C60.7911 61.7604 61.1245 62.1042 61.1245 62.4479C61.2395 62.7917 60.8946 63.1354 60.4347 63.1354Z" fill="#333333"/>
<path d="M60.4348 63.1354C60.0783 63.1354 59.7334 62.7916 59.7334 62.4479C59.7334 62.1041 60.0783 61.7604 60.4348 61.7604C60.7912 61.7604 61.1247 62.1041 61.1247 62.4479C61.2397 62.7916 60.8947 63.1354 60.4348 63.1354Z" fill="#07A2E4"/>
<path d="M59.0317 5.72913C56.2377 5.72913 53.915 8.02079 53.915 10.7708C53.915 13.5208 56.2377 15.8125 59.0317 15.8125C61.8258 15.8125 64.1484 13.5208 64.1484 10.7708C64.1484 8.02079 61.8258 5.72913 59.0317 5.72913ZM59.0317 12.9479C57.8704 12.9479 56.8241 12.0312 56.8241 10.7708C56.8241 9.51038 57.7554 8.70829 59.0317 8.70829C60.1931 8.70829 61.2394 9.62496 61.2394 10.8854C61.2394 12.1458 60.1931 12.9479 59.0317 12.9479Z" fill="#333333"/>
<path d="M61.2395 10.8855C61.2395 12.1459 60.1932 12.948 59.0319 12.948C57.8706 12.948 56.8242 12.0313 56.8242 10.7709C56.8242 9.51046 57.7556 8.70837 59.0319 8.70837C60.1932 8.70837 61.2395 9.62504 61.2395 10.8855Z" fill="#07A2E4"/>
</g>
<defs>
<clipPath id="clip0_21_702">
<rect width="67" height="66" fill="white"/>
</clipPath>
</defs>
</svg>
