<svg width="68" height="68" viewBox="0 0 68 68" fill="none" xmlns="http://www.w3.org/2000/svg">
<g clip-path="url(#clip0_21_749)">
<path d="M33.8341 41.9499C37.7482 41.9499 41.0803 38.7265 41.0803 34.6915C41.0803 30.6566 37.7482 27.5475 33.8341 27.5475C29.92 27.5475 26.5879 30.7709 26.5879 34.8058C26.5879 38.8408 29.8059 41.9499 33.8341 41.9499ZM32.3392 30.6566V34.6915C32.3392 35.5031 33.0239 36.1889 33.8341 36.1889H36.025C36.8352 36.1889 37.5199 35.5031 37.5199 34.6915C37.5199 33.88 36.7097 33.3085 36.025 33.3085H35.3404V30.6566C37.0635 31.2281 38.216 32.8512 38.216 34.6915C38.216 37.1148 36.2647 39.0694 33.8455 39.0694C31.4263 39.0694 29.475 37.1148 29.475 34.6915C29.475 32.8512 30.7416 31.2395 32.3506 30.6566H32.3392Z" fill="#333333"/>
<path d="M66.1628 33.3085H51.7731V24.667H54.6488C55.459 24.667 56.1551 23.9697 56.1551 23.1696V16.0256C56.1551 15.214 55.459 14.5282 54.6488 14.5282H34.5192V10.2646H46.0218C46.832 10.2646 47.5167 9.56732 47.5167 8.75576V1.49739C47.5167 0.69726 46.832 0 46.0218 0H33.1384C32.3397 0 31.6436 0.69726 31.6436 1.49739V14.5282H13.0089C12.1987 14.5282 11.514 15.214 11.514 16.0256V23.2839C11.514 24.084 12.1987 24.7813 13.0089 24.7813H15.8845V33.3085H1.50629C0.69609 33.3085 0 33.9943 0 34.8059V39.0694C0 39.881 0.69609 40.5668 1.50629 40.5668H3.00117V66.5026C3.00117 67.3027 3.68585 68 4.49606 68H63.5154C64.3141 68 65.0102 67.3027 65.0102 66.5026V40.5668H66.5051C67.3039 40.5668 68 39.881 68 39.0694V34.6915C67.6577 33.9943 66.9616 33.3085 66.1628 33.3085ZM34.5192 3.10909H44.641V7.4984H34.5192V3.10909ZM15.8845 65.1195H5.76271V40.5668H15.8845V65.1195ZM15.8845 37.6863H2.88706V36.1889H15.8845V37.6863ZM14.3897 21.7865V17.5229H53.268V21.7865H14.3897ZM27.3871 65.0052H18.7602V62.1247H27.3871V65.0052ZM37.509 65.0052H30.2628V53.4718H37.509V65.0052ZM48.8975 65.0052H40.2705V62.1247H48.8975V65.0052ZM48.8975 44.8304H43.1462C42.3474 44.8304 41.6513 45.5276 41.6513 46.3278C41.6513 47.1279 42.3474 47.8252 43.1462 47.8252H48.8975V59.3585H40.2705V52.0888C40.2705 51.2886 39.5858 50.5914 38.7756 50.5914H28.7679C27.9577 50.5914 27.273 51.2886 27.273 52.0888V59.3585H18.6461V24.7813H48.8975V44.8304ZM61.9064 65.0052H51.7731V40.5668H61.9064V65.0052ZM64.782 37.6863H51.7731V36.1889H64.782V37.6863Z" fill="#333333"/>
<path d="M27.3867 62.1248H18.7598V65.0052H27.3867V62.1248Z" fill="#07A2E4"/>
<path d="M48.8975 62.1248H40.2705V65.0052H48.8975V62.1248Z" fill="#07A2E4"/>
<path d="M44.6414 3.10913H34.5195V7.49844H44.6414V3.10913Z" fill="#07A2E4"/>
<path d="M13.009 44.8304H8.63844C7.82823 44.8304 7.14355 45.5277 7.14355 46.3278V57.8498C7.14355 58.6613 7.82823 59.3472 8.63844 59.3472H13.009C13.8192 59.3472 14.5038 58.6613 14.5038 57.8498V46.3278C14.3897 45.5163 13.6936 44.8304 13.009 44.8304ZM10.1333 47.7109H11.5141V52.0888H10.0192V47.7109H10.1333ZM11.5141 56.3524H10.0192V54.855H11.5141V56.3524Z" fill="#333333"/>
<path d="M54.6492 59.2328H59.0197C59.8299 59.2328 60.5146 58.5355 60.5146 57.7354V46.2135C60.5146 45.4019 59.8299 44.7161 59.0197 44.7161H54.6492C53.839 44.7161 53.1543 45.4133 53.1543 46.2135V57.7354C53.2684 58.5355 53.839 59.2328 54.6492 59.2328ZM57.5248 56.3523H56.0299V54.8549H57.5248V56.3523ZM56.1441 47.7109H57.5248V52.0887H56.0299V47.7109H56.1441Z" fill="#333333"/>
<path d="M8.63878 4.49219C6.21958 4.49219 4.25684 6.45823 4.25684 8.8815C4.25684 11.3048 6.21958 13.1451 8.63878 13.1451C11.058 13.1451 13.0093 11.179 13.0093 8.75576C13.0093 6.3325 11.0466 4.49219 8.63878 4.49219ZM8.63878 10.3789C7.82858 10.3789 7.1439 9.68163 7.1439 8.8815C7.25801 8.06993 7.82858 7.37267 8.63878 7.37267C9.44898 7.37267 10.1337 8.06993 10.1337 8.8815C10.1337 9.69306 9.43757 10.3789 8.63878 10.3789Z" fill="#333333"/>
<path d="M10.1333 8.88151C10.1333 9.68164 9.43723 10.3789 8.63844 10.3789C7.83964 10.3789 7.14355 9.68164 7.14355 8.88151C7.25767 8.06994 7.82823 7.37268 8.63844 7.37268C9.44864 7.37268 10.1333 8.06994 10.1333 8.88151Z" fill="#07A2E4"/>
<path d="M62.5913 5.87524C59.8298 5.87524 57.5361 8.1842 57.5361 10.9504C57.5361 13.7166 59.8298 16.0255 62.5913 16.0255C65.3529 16.0255 67.658 13.7166 67.658 10.9504C67.658 8.1842 65.3529 5.87524 62.5913 5.87524ZM62.5913 13.2593C61.3247 13.2593 60.4118 12.3335 60.4118 11.0647C60.4118 9.7959 61.3247 8.88146 62.5913 8.88146C63.7439 8.88146 64.7823 9.7959 64.7823 11.0647C64.7823 12.3335 63.858 13.2593 62.5913 13.2593Z" fill="#333333"/>
<path d="M64.7817 11.0647C64.7817 12.3335 63.8573 13.2593 62.5907 13.2593C61.324 13.2593 60.4111 12.3335 60.4111 11.0647C60.4111 9.79591 61.324 8.88147 62.5907 8.88147C63.7432 8.88147 64.7817 9.79591 64.7817 11.0647Z" fill="#07A2E4"/>
<path d="M38.8894 44.8304C39.711 44.8304 40.3843 45.5048 40.3843 46.3278C40.3843 47.1508 39.711 47.8252 38.8894 47.8252C38.0678 47.8252 37.3945 47.1508 37.3945 46.3278C37.3945 45.5048 38.0678 44.8304 38.8894 44.8304Z" fill="#333333"/>
</g>
<defs>
<clipPath id="clip0_21_749">
<rect width="68" height="68" fill="white"/>
</clipPath>
</defs>
</svg>
