<svg width="64" height="50" viewBox="0 0 64 50" fill="none" xmlns="http://www.w3.org/2000/svg">
<g clip-path="url(#clip0_21_727)">
<path d="M58.3167 40.2966V22.9393C59.0046 21.1164 58.3167 18.9425 56.6141 17.8102L32.1688 2.6268C30.8044 1.70968 29.1018 1.70968 27.6247 2.6268L3.17932 17.8102C0.450642 19.5199 0.450642 23.4035 3.17932 25.1132L11.3654 30.2536V45.4257C11.3654 47.9393 13.4175 50 15.9207 50H43.7713C46.2745 50 48.3153 47.9393 48.3153 45.4257V30.2536L55.4753 25.7926V40.2966C53.7727 40.8628 52.6339 42.4592 52.6339 44.2935C52.6339 46.6825 54.5733 48.63 56.9524 48.63C59.3315 48.63 61.1582 46.6825 61.1582 44.2935C61.1582 42.4592 60.0306 40.8628 58.3167 40.2966ZM45.6994 45.4257H45.5867C45.5867 46.3428 44.7974 47.1467 43.884 47.1467H16.0334C15.1201 47.1467 14.3196 46.3428 14.3196 45.4257V31.9633L27.7375 40.2966C29.1018 41.2024 30.8044 41.2024 32.2928 40.2966L45.6994 31.9633V45.4257ZM55.0243 22.7129L30.6917 37.8963C30.2406 38.236 29.6769 38.236 29.2146 37.8963L4.78045 22.7129C3.86713 22.1467 3.86713 20.7767 4.78045 20.1993L29.2146 5.01584C29.6769 4.67617 30.2406 4.67617 30.6917 5.01584L55.137 20.1993C55.9376 20.7767 55.9376 22.1467 55.0243 22.7129ZM56.9524 45.7767C56.1631 45.7767 55.4753 45.086 55.4753 44.2935C55.4753 43.5009 56.1631 42.8102 56.9524 42.8102C57.7417 42.8102 58.4295 43.4896 58.4295 44.2935C58.3167 45.086 57.6402 45.7767 56.9524 45.7767Z" fill="#333333"/>
<path d="M58.4298 44.2934C58.317 45.086 57.6405 45.7767 56.9527 45.7767C56.1634 45.7767 55.4756 45.086 55.4756 44.2934C55.4756 43.5008 56.1634 42.8102 56.9527 42.8102C57.742 42.8102 58.4298 43.4895 58.4298 44.2934Z" fill="#07A2E4"/>
<path d="M22.0554 13.1227L10.6897 20.3124C10.0132 20.7653 9.77637 21.5692 10.2387 22.2486C10.6897 22.9279 11.4903 23.1657 12.1668 22.7015L23.5325 15.5117C24.2091 15.0588 24.4459 14.2549 23.9836 13.5756C23.5325 12.8849 22.732 12.6585 22.0554 13.1227Z" fill="#333333"/>
<path d="M4.31853 32.8691C1.93939 32.8691 0 34.8166 0 37.2056C0 39.5947 1.93939 41.5535 4.31853 41.5535C6.69767 41.5535 8.63707 39.606 8.63707 37.2056C8.63707 34.8053 6.70895 32.8691 4.31853 32.8691ZM4.31853 38.5757C3.52925 38.5757 2.84144 37.8963 2.84144 37.0924C2.84144 36.2885 3.52925 35.6092 4.31853 35.6092C5.10782 35.6092 5.79563 36.2998 5.79563 37.0924C5.79563 37.885 5.1191 38.5757 4.31853 38.5757Z" fill="#333333"/>
<path d="M4.31889 38.5756C5.13467 38.5756 5.79599 37.9115 5.79599 37.0924C5.79599 36.2732 5.13467 35.6091 4.31889 35.6091C3.50312 35.6091 2.8418 36.2732 2.8418 37.0924C2.8418 37.9115 3.50312 38.5756 4.31889 38.5756Z" fill="#07A2E4"/>
<path d="M59.0054 0C56.2767 0 53.999 2.27582 53.999 5.01585C53.999 7.75589 56.2767 10.043 59.0054 10.043C61.7341 10.043 64.0004 7.75589 64.0004 5.01585C64.0004 2.27582 61.7341 0 59.0054 0ZM59.0054 7.30299C57.7538 7.30299 56.8405 6.38587 56.8405 5.12908C56.8405 3.87228 57.8665 2.96649 59.0054 2.96649C60.1442 2.96649 61.159 3.87228 61.159 5.12908C61.159 6.38587 60.257 7.30299 59.0054 7.30299Z" fill="#333333"/>
<path d="M61.1584 5.12902C61.1584 6.38582 60.2563 7.30293 59.0048 7.30293C57.7532 7.30293 56.8398 6.38582 56.8398 5.12902C56.8398 3.87223 57.8659 2.96643 59.0048 2.96643C60.1436 2.96643 61.1584 3.87223 61.1584 5.12902Z" fill="#07A2E4"/>
<path d="M27.0611 10.043C27.8729 10.043 28.5382 10.711 28.5382 11.5262C28.5382 12.3414 27.8729 13.0095 27.0611 13.0095C26.2492 13.0095 25.584 12.3414 25.584 11.5262C25.584 10.711 26.2492 10.043 27.0611 10.043Z" fill="#333333"/>
</g>
<defs>
<clipPath id="clip0_21_727">
<rect width="64" height="50" fill="white"/>
</clipPath>
</defs>
</svg>
