<svg width="59" height="66" viewBox="0 0 59 66" fill="none" xmlns="http://www.w3.org/2000/svg">
<g clip-path="url(#clip0_21_568)">
<path d="M48.9772 57.3068H45.9817C45.2869 54.104 42.4052 51.5875 38.954 51.5875C38.1454 51.5875 37.4506 50.9012 37.4506 50.1005V48.3847C39.1819 47.8128 40.3322 46.2114 40.3322 44.3813C40.3322 42.5511 39.1818 40.9497 37.5645 40.3778C40.7878 38.3189 43.3278 35.1161 44.3643 31.227C50.6971 29.1681 55.31 23.6776 56.3465 17.1577L57.6108 8.80762C57.7247 7.89255 57.0299 7.20624 56.2326 7.20624H47.0181L47.599 1.60139C47.7129 0.800693 47.0181 0 46.2208 0H11.527C10.7183 0 10.0349 0.686308 10.1488 1.60139L10.7297 7.20624H1.50385C0.581267 7.20624 -0.11352 8.00693 0.125669 8.80762L1.38995 17.1577C2.42644 23.6776 7.03937 29.1681 13.3722 31.227C14.4087 35.1161 16.9486 38.3189 20.172 40.3778C18.4407 40.9497 17.2903 42.5511 17.2903 44.3813C17.2903 46.2114 18.4407 47.8128 20.172 48.3847V50.1005C20.172 50.9012 19.4772 51.5875 18.6799 51.5875C15.2174 51.5875 12.3471 54.104 11.6523 57.3068H8.65675C4.7386 57.3068 1.40134 60.5095 1.40134 64.513C1.40134 65.3137 2.09613 66 2.89343 66H54.7405C55.5492 66 56.244 65.3137 56.1187 64.513C56.1187 60.3951 52.8954 57.3068 48.9772 57.3068ZM44.9452 27.9099L46.0956 15.7851H53.5901L53.4762 16.7002C52.6676 21.7331 49.4442 25.851 44.9452 27.9099ZM54.5127 10.0659L54.0457 12.9255H46.4373L46.6651 10.0659H54.5013H54.5127ZM10.9575 10.0659L11.1853 12.9255H3.57683L3.12123 10.0659H10.9575ZM4.15772 16.7002L4.04382 15.7851H11.5384L12.6888 27.9099C8.18976 25.851 4.9664 21.7331 4.15772 16.7002ZM15.6844 28.5962L13.1444 2.974H44.4896L44.0226 7.32062H23.0537C22.245 7.32062 21.5616 8.00693 21.5616 8.80762C21.5616 9.60832 22.2564 10.2946 23.0537 10.2946H43.7948L41.9496 28.825C41.1409 35.3449 35.5029 40.3778 28.817 40.3778C22.1311 40.3778 16.493 35.1161 15.6844 28.5962ZM36.0838 43.0087C36.8925 43.0087 37.5873 43.695 37.5873 44.4957C37.5873 45.2964 36.8925 45.9827 36.0838 45.9827H21.6755C20.8668 45.9827 20.1834 45.2964 20.1834 44.4957C20.1834 43.695 20.8782 43.0087 21.6755 43.0087H36.0838ZM18.8052 54.4471C21.2199 54.4471 23.179 52.5026 23.179 50.1005V48.6135H34.7056V50.1005C34.7056 50.5581 34.8195 51.13 34.9334 51.5875H28.8284C28.0197 51.5875 27.3363 52.2738 27.3363 53.0745C27.3363 53.8752 28.0311 54.5615 28.8284 54.5615H38.9654C40.8106 54.5615 42.4166 55.7054 42.9975 57.4211H14.6365C15.2174 55.591 16.8234 54.4471 18.7824 54.4471H18.8052ZM4.63609 63.026C5.21698 61.3102 6.82297 60.1664 8.66814 60.1664H49C50.8452 60.1664 52.4512 61.3102 53.032 63.026H4.61331H4.63609Z" fill="#333333"/>
<path d="M3.69035 43.0087C1.73127 43.0087 0 44.6101 0 46.5546C0 48.4991 1.61737 50.1005 3.57645 50.1005C5.53552 50.1005 7.2668 48.4991 7.2668 46.5546C7.2668 44.6101 5.64942 43.0087 3.69035 43.0087ZM3.57645 47.2409C3.23475 47.2409 2.88166 46.8978 2.88166 46.5546C2.88166 46.2114 3.23475 45.8683 3.57645 45.8683C3.91815 45.8683 4.27124 46.2114 4.27124 46.5546C4.27124 46.8978 3.91815 47.2409 3.57645 47.2409Z" fill="#333333"/>
<path d="M4.27141 46.5546C4.27141 46.8978 3.91832 47.2409 3.57662 47.2409C3.23492 47.2409 2.88184 46.8978 2.88184 46.5546C2.88184 46.2114 3.23492 45.8683 3.57662 45.8683C3.91832 45.8683 4.27141 46.2114 4.27141 46.5546Z" fill="#07A2E4"/>
<path d="M55.4231 50.1005C53.4641 50.1005 51.8467 51.7019 51.8467 53.6464C51.8467 55.5909 53.4641 57.1923 55.4231 57.1923C57.3822 57.1923 58.9996 55.5909 58.9996 53.6464C59.1135 51.7019 57.3822 50.1005 55.4231 50.1005ZM55.4231 54.4471C55.0814 54.4471 54.7283 54.1039 54.7283 53.7608C54.7283 53.4176 55.0814 53.0745 55.4231 53.0745C55.7648 53.0745 56.1179 53.4176 56.1179 53.7608C56.2318 54.1039 55.8901 54.4471 55.4231 54.4471Z" fill="#333333"/>
<path d="M55.4233 54.4471C55.0816 54.4471 54.7285 54.1039 54.7285 53.7608C54.7285 53.4176 55.0816 53.0745 55.4233 53.0745C55.765 53.0745 56.1181 53.4176 56.1181 53.7608C56.232 54.1039 55.8903 54.4471 55.4233 54.4471Z" fill="#07A2E4"/>
<path d="M51.1633 31.4558C48.3955 31.4558 46.0947 33.7435 46.0947 36.4887C46.0947 39.234 48.3955 41.5217 51.1633 41.5217C53.931 41.5217 56.2318 39.234 56.2318 36.4887C56.2318 33.7435 53.931 31.4558 51.1633 31.4558ZM51.1633 38.662C49.8876 38.662 48.9764 37.747 48.9764 36.4887C48.9764 35.2305 49.8876 34.3154 51.1633 34.3154C52.4389 34.3154 53.3501 35.3449 53.3501 36.4887C53.3501 37.6326 52.4275 38.662 51.1633 38.662Z" fill="#333333"/>
<path d="M53.3503 36.4887C53.3503 37.6326 52.4277 38.662 51.1634 38.662C49.8991 38.662 48.9766 37.747 48.9766 36.4887C48.9766 35.2305 49.8878 34.3154 51.1634 34.3154C52.4391 34.3154 53.3503 35.3449 53.3503 36.4887Z" fill="#07A2E4"/>
<path d="M38.8287 19.7885C38.6009 19.2166 38.1453 18.7591 37.4506 18.7591H31.915L30.1952 13.4974C29.956 12.9254 29.5004 12.5823 28.8056 12.5823C28.1108 12.5823 27.6552 12.9254 27.4274 13.4974L25.6961 18.7591H20.172C19.5911 18.7591 19.0102 19.2166 18.7824 19.7885C18.5546 20.3604 18.7824 21.0467 19.3633 21.3899L23.8509 24.5927L22.1311 29.8544C21.8919 30.4263 22.1311 31.1126 22.7006 31.4558C23.1675 31.7989 23.8509 31.7989 24.4318 31.4558L28.9195 28.253L33.3046 31.4558C33.5324 31.6845 33.8741 31.6845 34.1133 31.6845C35.0359 31.6845 35.8332 30.7695 35.4915 29.8544L33.7602 24.5927L38.2592 21.3899C38.7148 21.0467 38.954 20.3604 38.8287 19.7885ZM30.7647 24.3639L31.4594 26.4228L29.7282 25.1646C29.2726 24.8214 28.5778 24.8214 27.9969 25.1646L26.1631 26.5372L26.8465 24.4783C27.0857 23.9064 26.8465 23.2201 26.277 22.8769L24.5457 21.5043H26.7326C27.3135 21.5043 27.883 21.1611 28.1222 20.5892L28.8056 18.5303L29.5004 20.5892C29.7282 21.1611 30.1952 21.5043 30.8786 21.5043H33.0768L31.3455 22.7625C30.8786 23.1057 30.6508 23.792 30.7647 24.3639Z" fill="#333333"/>
<path d="M30.7638 24.3639L31.4586 26.4228L29.7274 25.1646C29.2718 24.8214 28.577 24.8214 27.9961 25.1646L26.1623 26.5372L26.8457 24.4783C27.0849 23.9064 26.8457 23.22 26.2762 22.8769L24.5449 21.5043H26.7318C27.3127 21.5043 27.8822 21.1611 28.1214 20.5892L28.8048 18.5303L29.4996 20.5892C29.7274 21.1611 30.1943 21.5043 30.8777 21.5043H33.076L31.3447 22.7625C30.8777 23.1057 30.6499 23.792 30.7638 24.3639Z" fill="#07A2E4"/>
<path d="M20.1713 8.6933C20.1713 7.89261 19.4766 7.2063 18.6793 7.2063C17.882 7.2063 17.1758 7.89261 17.1758 8.6933C17.1758 9.49399 17.8706 10.1803 18.6793 10.1803C19.1349 10.0659 20.1713 9.37961 20.1713 8.6933Z" fill="#333333"/>
</g>
<defs>
<clipPath id="clip0_21_568">
<rect width="59" height="66" fill="white"/>
</clipPath>
</defs>
</svg>
