<svg width="79" height="64" viewBox="0 0 79 64" fill="none" xmlns="http://www.w3.org/2000/svg">
<g clip-path="url(#clip0_21_811)">
<path d="M20.1341 14.4832C19.675 14.4832 19.3191 14.2552 18.9747 13.913C18.5156 13.3428 18.7451 12.4191 19.3191 12.077C19.4339 11.9629 19.5487 11.9629 19.6635 11.8489C23.2565 9.4312 27.7678 6.78544 30.5458 7.93726C31.2345 8.27939 32.1644 8.97504 32.3939 10.583C32.5087 11.2787 32.0496 11.9629 31.3493 12.077C30.6606 12.191 29.9603 11.7348 29.8456 11.0392C29.7308 10.583 29.616 10.469 29.5012 10.469C29.3864 10.3549 28.3418 10.1269 25.6786 11.5068C23.9452 12.4305 22.2119 13.4569 21.2821 14.1525C21.1673 14.2666 21.0525 14.3806 20.9377 14.3806C20.5933 14.3806 20.3637 14.4946 20.1227 14.4946L20.1341 14.4832Z" fill="#333333"/>
<path d="M10.882 22.7627H9.14866C8.45991 22.6486 7.98926 22.067 7.98926 21.3828V8.05132C7.98926 7.35567 8.56322 6.67142 9.26345 6.67142C13.4304 6.67142 15.2786 5.29152 17.3678 3.68354C18.9864 2.41768 20.8345 1.03778 24.0831 0.228083C24.7834 0.114041 25.5869 0 26.5167 0C29.6391 0 34.2652 0.684248 38.4322 1.83607C40.6362 2.40627 42.4843 3.10192 43.8733 3.78617C45.7215 4.70991 46.7661 5.62224 46.9957 6.77406C47.2252 7.69779 47.1104 8.72416 46.5365 9.53386C45.6067 11.0278 43.6437 11.9515 42.2547 12.1796C41.566 12.2937 40.751 12.4077 39.9359 12.4077C37.5023 12.4077 34.6096 11.9515 32.417 11.2559C32.3022 12.1796 31.9579 13.0919 31.2576 14.0157C28.1353 18.1554 19.3422 21.953 15.9788 22.4091C15.1638 22.6372 12.6269 22.7512 10.882 22.7512V22.7627ZM10.6524 20.0029H10.882C12.6154 20.0029 15.049 19.8888 15.6229 19.8888C18.5157 19.5467 26.62 15.9772 29.1684 12.5331C29.7424 11.8489 29.8687 11.2673 29.8687 10.6971C29.6391 10.355 29.5243 10.2409 29.5243 10.2409C29.0651 9.78475 29.0651 9.0891 29.4095 8.63293C29.7539 8.17676 30.4541 7.94868 31.0281 8.17676C33.2321 8.98646 36.9284 9.89879 39.9359 9.89879C40.6247 9.89879 41.3249 9.89879 41.7841 9.78475C42.5991 9.67071 43.747 8.98646 44.2177 8.29081C44.4473 7.94868 44.4473 7.7206 44.3325 7.60656C44.2177 7.26443 42.5991 5.99857 37.5023 4.50463C33.6798 3.46686 29.2832 2.78261 26.5052 2.78261C25.4606 2.78261 25.0015 2.89665 24.6571 2.89665C21.9939 3.5809 20.4901 4.73272 18.9864 5.88453C16.8971 7.49252 14.8194 9.1005 10.6524 9.32858V20.0257V20.0029Z" fill="#333333"/>
<path d="M9.37852 24.0285H1.38899C0.700233 24.0285 0 23.4583 0 22.6486V5.40553C0 4.72129 0.573961 4.02563 1.38899 4.02563H9.37852C10.0673 4.02563 10.7675 4.59584 10.7675 5.40553V22.7626C10.6527 23.4469 10.0788 24.0285 9.37852 24.0285ZM2.66318 21.3827H7.98954V6.67139H2.66318V21.3941V21.3827Z" fill="#333333"/>
<path d="M5.32595 10.6971C4.98157 10.6971 4.6372 10.5831 4.39613 10.355C4.16655 10.1269 4.05176 9.78479 4.05176 9.43126C4.05176 9.07774 4.16655 8.73561 4.39613 8.50753C4.62572 8.27945 4.9701 8.16541 5.32595 8.16541C5.68181 8.16541 6.0147 8.27945 6.25577 8.50753C6.48535 8.73561 6.60014 9.07774 6.60014 9.43126C6.60014 9.78479 6.48535 10.1155 6.25577 10.355C6.02618 10.5831 5.68181 10.6971 5.32595 10.6971Z" fill="#333333"/>
<path d="M49.8314 56.3023C49.2575 56.3023 48.7868 56.1882 48.3276 56.0742C47.6389 55.7321 46.7091 55.0364 46.4795 53.4284C46.3647 52.7328 46.8239 52.0485 47.5241 51.9345C48.2128 51.8204 48.9131 52.2766 49.0279 52.9723C49.1427 53.4284 49.2574 53.5425 49.3722 53.5425C49.487 53.6565 50.5316 53.8846 53.1948 52.5047C54.9282 51.581 56.6615 50.5546 57.5914 49.8589C57.7062 49.7449 57.821 49.6309 57.9357 49.6309C58.5097 49.1747 59.4395 49.4028 59.7839 49.973C60.2431 50.5432 60.0135 51.4669 59.4395 51.809C59.3247 51.9231 59.2099 51.9231 59.0951 52.0371C56.2024 54.2267 52.4946 56.2909 49.8314 56.2909V56.3023Z" fill="#333333"/>
<path d="M52.2646 64C49.1422 64 44.5161 63.3157 40.3492 62.1639C38.1452 61.5937 36.297 60.8981 34.908 60.2138C33.0599 59.2901 32.0152 58.3778 31.7857 57.2259C31.5561 56.3022 31.6709 55.2758 32.2448 54.4661C33.1747 52.9722 35.1376 52.0485 36.5266 51.8204C37.2153 51.7063 38.0304 51.5923 38.8454 51.5923C41.279 51.5923 44.1717 52.0485 46.3643 52.7441C46.4791 51.8204 46.8234 50.9081 47.5237 49.9843C50.646 45.8446 59.4391 42.047 62.8025 41.5909C63.4913 41.4768 66.0397 41.3628 67.7845 41.3628H69.5179C70.2066 41.4768 70.6773 42.047 70.6773 42.7427V56.0855C70.6773 56.7698 70.1033 57.4654 69.4031 57.4654C65.2361 57.4654 63.388 58.8453 61.2987 60.4533C59.6802 61.7192 57.832 63.0991 54.5834 63.8974C54.1242 63.8974 53.3092 64.0114 52.2646 64.0114V64ZM38.9602 54.2267C38.2714 54.2267 37.5712 54.2267 37.112 54.3407C36.297 54.4547 35.1491 55.1504 34.6784 55.8346C34.4488 56.1768 34.4488 56.4048 34.5636 56.5189C34.6784 56.861 36.297 58.1269 41.3938 59.6208C45.2164 60.6586 49.6129 61.3428 52.3909 61.3428C53.4355 61.3428 53.8946 61.2288 54.239 61.2288C56.9022 60.5445 58.406 59.3927 59.9098 58.2409C61.999 56.6329 64.0767 55.0249 68.2437 54.7969V44.0998H68.0141C66.2807 44.0998 63.8471 44.2138 63.2732 44.2138C60.3804 44.556 52.2761 48.1254 49.7277 51.5695C49.1537 52.2537 49.0275 52.8354 49.0275 53.4056C49.1422 53.7477 49.257 53.9758 49.257 53.9758C49.7162 54.4319 49.7162 55.1276 49.3718 55.5837C49.0275 56.0399 48.3272 56.268 47.7533 56.0399C45.6755 55.0021 41.9677 54.2038 38.9602 54.2038V54.2267Z" fill="#333333"/>
<path d="M77.6109 59.9858H69.6214C68.9212 59.9858 68.2324 59.4156 68.2324 58.6059V41.3628C68.2324 40.6786 68.8064 39.9829 69.6214 39.9829H77.6109C78.2997 39.9829 78.9999 40.5531 78.9999 41.3628V58.7199C78.8851 59.4156 78.3112 59.9858 77.6109 59.9858ZM70.8956 57.34H76.222V42.6173H70.8956V57.34Z" fill="#333333"/>
<path d="M73.5584 55.9601C73.214 55.9601 72.8581 55.846 72.6286 55.6179C72.399 55.3899 72.2842 55.0477 72.2842 54.6942C72.2842 54.3407 72.399 53.9986 72.6286 53.7705C72.8581 53.5424 73.2025 53.4283 73.5584 53.4283C73.9142 53.4283 74.2471 53.5424 74.4882 53.7705C74.7178 53.9986 74.8326 54.3407 74.8326 54.6942C74.8326 55.0477 74.7178 55.3785 74.4882 55.6179C74.2586 55.846 73.9142 55.9601 73.5584 55.9601Z" fill="#333333"/>
<path d="M59.9326 26.1041C59.3471 21.3942 55.0654 17.8247 50.0949 17.8247C46.1575 17.8247 43.3795 19.0906 41.1755 22.1925C39.3274 19.3186 37.1233 17.8247 32.9564 17.8247C27.9859 17.8247 23.7041 21.3942 23.1302 26.1041C23.0039 26.5603 23.0039 26.9138 23.0039 27.2559C23.0039 29.092 23.3598 30.7 24.0485 32.308C24.8635 34.2695 26.2525 36.1055 28.2155 38.1811C29.9488 40.0172 32.1528 41.7392 34.3454 43.7007C36.3198 45.4227 38.3975 47.1447 40.4868 49.0948C40.7163 49.3343 41.0607 49.4484 41.4051 49.4484C41.7495 49.4484 42.1053 49.3343 42.5645 49.0948C44.6537 47.1447 46.7315 45.4227 48.7059 43.7007C50.8984 41.8532 53.1024 40.0172 54.8358 38.1811C56.7987 36.1055 58.1877 34.2695 59.0027 32.308C59.6915 30.5859 60.0474 28.9779 60.0474 27.2559C60.0474 26.9138 59.9326 26.4462 59.9326 26.1041ZM57.3842 27.37C57.3842 28.7499 57.1546 30.0157 56.5691 31.2816C55.7656 32.8896 54.6062 34.4976 52.8728 36.3336C51.128 38.067 49.0503 39.7891 46.8462 41.6251C45.1129 43.005 43.3795 44.613 41.5314 46.221C39.6717 44.613 37.9384 43.1191 36.205 41.6251C34.001 39.7891 31.9233 38.067 30.1899 36.3336C28.3303 34.4976 27.1709 32.8896 26.4821 31.2816C25.8967 30.0157 25.6671 28.7499 25.6671 27.37V26.5603C26.1377 23.1162 29.1453 20.5845 32.8416 20.5845C36.3198 20.5845 37.8236 21.5082 40.1424 25.5339C40.372 25.9901 40.8311 26.2181 41.2903 26.2181C41.7495 26.2181 42.2201 25.9901 42.4497 25.5339C44.3093 21.9644 46.5019 20.5845 50.2097 20.5845C53.9174 20.5845 56.9135 23.1162 57.3842 26.5603V27.37Z" fill="#333333"/>
<path d="M57.3851 26.5602V27.3699C57.3851 28.7498 57.1555 30.0157 56.57 31.2816C55.7665 32.8895 54.6071 34.4975 52.8737 36.3336C51.1289 38.067 49.0511 39.789 46.8471 41.6251C45.1138 43.005 43.3804 44.613 41.5323 46.221C39.6726 44.613 37.9393 43.119 36.2059 41.6251C34.0019 39.789 31.9241 38.067 30.1908 36.3336C28.3311 34.4975 27.1717 32.8895 26.483 31.2816C25.8976 30.0157 25.668 28.7498 25.668 27.3699V26.5602C26.1386 23.1162 29.1462 20.5845 32.8425 20.5845C36.3207 20.5845 37.8245 21.5082 40.1433 25.5339C40.3729 25.99 40.832 26.2181 41.2912 26.2181C41.7504 26.2181 42.221 25.99 42.4506 25.5339C44.3102 21.9644 46.5028 20.5845 50.2105 20.5845C53.9183 20.5845 56.9144 23.1162 57.3851 26.5602Z" fill="#07A2E4"/>
<path d="M19.9964 47.5667C17.2185 47.5667 14.9111 49.8703 14.9111 52.6301C14.9111 55.3899 17.2185 57.6821 19.9964 57.6821C22.7744 57.6821 25.0932 55.3899 25.0932 52.6301C25.0932 49.8703 22.7744 47.5667 19.9964 47.5667ZM19.9964 54.9223C18.7222 54.9223 17.8039 54.01 17.8039 52.7441C17.8039 51.4783 18.7222 50.5545 19.9964 50.5545C21.1558 50.5545 22.2004 51.4783 22.2004 52.7441C22.2004 54.01 21.2706 54.9223 19.9964 54.9223Z" fill="#333333"/>
<path d="M22.2012 52.7442C22.2012 54.01 21.2714 54.9223 19.9972 54.9223C18.723 54.9223 17.8047 54.01 17.8047 52.7442C17.8047 51.4783 18.723 50.5546 19.9972 50.5546C21.1566 50.5546 22.2012 51.4783 22.2012 52.7442Z" fill="#07A2E4"/>
<path d="M64.754 11.3813C62.3318 11.3813 60.3574 13.3429 60.3574 15.7605C60.3574 18.1782 62.3318 20.0143 64.754 20.0143C67.1761 20.0143 69.1505 18.0528 69.1505 15.6465C69.1505 13.2402 67.1876 11.3813 64.754 11.3813ZM64.754 17.2545C63.9504 17.2545 63.2502 16.5588 63.2502 15.7605C63.365 14.9508 63.9504 14.2666 64.754 14.2666C65.5575 14.2666 66.2577 14.9508 66.2577 15.7605C66.2577 16.5702 65.569 17.2545 64.754 17.2545Z" fill="#333333"/>
<path d="M66.2585 15.7605C66.2585 16.5588 65.5698 17.2545 64.7548 17.2545C63.9397 17.2545 63.251 16.5588 63.251 15.7605C63.3658 14.9508 63.9512 14.2666 64.7548 14.2666C65.5583 14.2666 66.2585 14.9508 66.2585 15.7605Z" fill="#07A2E4"/>
</g>
<defs>
<clipPath id="clip0_21_811">
<rect width="79" height="64" fill="white"/>
</clipPath>
</defs>
</svg>
