<svg id="그룹_12" data-name="그룹 12" xmlns="http://www.w3.org/2000/svg" xmlns:xlink="http://www.w3.org/1999/xlink" width="209.924" height="73.445" viewBox="0 0 209.924 73.445">
  <defs>
    <clipPath id="clip-path">
      <rect id="사각형_5" data-name="사각형 5" width="209.924" height="73.445" fill="#fff"/>
    </clipPath>
    <clipPath id="clip-path-3">
      <rect id="사각형_3" data-name="사각형 3" width="144.948" height="9.294" fill="#fff"/>
    </clipPath>
  </defs>
  <g id="그룹_6" data-name="그룹 6" clip-path="url(#clip-path)">
    <g id="그룹_5" data-name="그룹 5" transform="translate(0 0)">
      <g id="그룹_4" data-name="그룹 4" clip-path="url(#clip-path)">
        <path id="패스_1" data-name="패스 1" d="M32.778,78.6a1.561,1.561,0,0,1-1.148-.5c-.11-.119-11.034-11.9-12.988-13.979-1.069-1.135-4.667-1.845-6.881-1.987a1.574,1.574,0,0,1-.506-.118C10.915,61.871,2.884,58.43.589,51.105c-.918-2.929-.762-5.132.465-6.546a4.562,4.562,0,0,1,3.769-1.414L15.056,40.7a13.141,13.141,0,0,1,5.636-7.185c3.86-2.3,8.917-2.48,15.033-.549,9.135,2.884,12.922,9.153,14.49,13.9a25.111,25.111,0,0,1,1.2,9.62c-.052.876-.832,11.06-8.765,12.193-3.682.525-6.5,0-8.6-1.6-2.208-1.683-3.538-4.516-4.066-8.662-.949-7.465,5.711-14.479,6-14.775a1.567,1.567,0,0,1,.162-.146c.061-.051.47-.393,2.811-2.421a1.565,1.565,0,0,1,2.048,2.366c-1.68,1.455-2.424,2.1-2.8,2.4-.447.48-5.848,6.426-5.117,12.178.416,3.272,1.351,5.42,2.858,6.568,1.4,1.07,3.452,1.395,6.261.993,5.563-.794,6.081-9.217,6.086-9.3,0-.029,0-.061.007-.09.068-.628,1.482-15.506-13.522-20.244-5.228-1.652-9.43-1.565-12.491.255a10.027,10.027,0,0,0-4.44,6.1,1.565,1.565,0,0,1-1.171,1.223L5.292,46.249a1.555,1.555,0,0,1-.615.023,1.623,1.623,0,0,0-1.266.344c-.162.193-.632,1.018.163,3.555,1.669,5.328,7.48,8.3,8.677,8.861,1.4.113,6.537.679,8.669,2.943,1.961,2.084,12.894,13.877,13,14A1.564,1.564,0,0,1,32.778,78.6" transform="translate(0 -5.153)" fill="#fff"/>
        <path id="패스_2" data-name="패스 2" d="M44.966,34.551A1.564,1.564,0,0,1,43.942,31.8c2.974-2.575,3.916-3.418,5.3-4.747a7.371,7.371,0,0,0,1.9-5.091l-2.538-1.344a1.564,1.564,0,0,1-.832-1.426,12.038,12.038,0,0,0-3.2-7.549C41.462,8.118,35.1,8.815,35.04,8.823a1.567,1.567,0,0,1-1.749-1.554V3.262a9.9,9.9,0,0,0-4.867,3.224c-.029.039-.06.076-.094.112L4.07,32.839a1.564,1.564,0,1,1-2.3-2.124L25.991,4.52c.482-.605,4-4.784,8.952-4.506a1.565,1.565,0,0,1,1.478,1.562V5.629h.008c2.6,0,7.457.506,10.494,3.947a15.733,15.733,0,0,1,3.927,8.694l2.563,1.355a1.568,1.568,0,0,1,.824,1.211c.023.213.542,5.261-2.825,8.482-1.436,1.373-2.4,2.234-5.42,4.851a1.56,1.56,0,0,1-1.024.382" transform="translate(-0.221 0)" fill="#fff"/>
        <path id="패스_3" data-name="패스 3" d="M49.853,23.4h-.248a1.366,1.366,0,0,1-1.361-1.361V19.064A1.365,1.365,0,0,1,49.605,17.7h.248a1.365,1.365,0,0,1,1.361,1.361v2.971A1.366,1.366,0,0,1,49.853,23.4" transform="translate(-7.857 -2.883)" fill="#fff"/>
        <path id="패스_4" data-name="패스 4" d="M28.414,48.157h-.248A1.366,1.366,0,0,1,26.805,46.8V43.825a1.365,1.365,0,0,1,1.361-1.361h.248a1.365,1.365,0,0,1,1.361,1.361V46.8a1.366,1.366,0,0,1-1.361,1.361" transform="translate(-4.365 -6.915)" fill="#fff"/>
        <path id="패스_5" data-name="패스 5" d="M98.473,32.268v2.077H76.331V32.268h9.786V29.984h-8.2V22.327H96.889V24.4h-16.4v3.5H97.149v2.077H88.66v2.284Zm-1.324,7.969c0,3.037-4.465,4.075-9.76,4.075s-9.759-1.038-9.759-4.075,4.464-4.048,9.759-4.048,9.76,1.012,9.76,4.048m-2.7,0c0-1.505-3.452-2.024-7.06-2.024s-7.06.519-7.06,2.024c0,1.532,3.452,2.051,7.06,2.051s7.06-.519,7.06-2.051" transform="translate(-12.431 -3.636)" fill="#fff"/>
        <path id="패스_6" data-name="패스 6" d="M118.483,33.2v2h8.279v5.3H110.2v1.557h16.95v1.92H107.685V38.681h16.56V37.122H107.633V35.2h8.305v-2h-9.785v-2h22.141v2Zm8.2-3.686H107.736v-7.19h18.948ZM124.141,24.3H110.306v3.245h13.835Z" transform="translate(-17.287 -3.636)" fill="#fff"/>
        <path id="패스_7" data-name="패스 7" d="M158.117,40.832v2.413H135.975V40.832h9.733V35.849h-8.279V22.792h2.544v3.971h14.12V22.792h2.543V35.849H148.33v4.984Zm-18.143-7.294h14.12V29.074h-14.12Z" transform="translate(-22.144 -3.712)" fill="#fff"/>
        <path id="패스_8" data-name="패스 8" d="M187.938,40.754v2.311H165.8V40.754h9.759v-3.4c-4.593-.208-7.968-1.479-7.968-4.335,0-3.141,4.022-4.412,9.266-4.412s9.266,1.271,9.266,4.412c0,2.856-3.375,4.127-7.969,4.335v3.4Zm-.8-13.652H166.576V24.791h8.929V21.676h2.647v3.115h8.981Zm-10.278,8.15c3.763,0,6.644-.623,6.644-2.233,0-1.635-2.881-2.258-6.644-2.258-3.738,0-6.644.623-6.644,2.258,0,1.61,2.907,2.233,6.644,2.233" transform="translate(-27.001 -3.53)" fill="#fff"/>
        <path id="패스_9" data-name="패스 9" d="M195.619,35.566V33.153c3.5-.96,4.8-5.451,4.8-10.876l2.465.078a24.849,24.849,0,0,1-.674,5.971l5.373,5.347L205.9,35.333l-4.542-4.568a7.714,7.714,0,0,1-5.736,4.8m21.855,6V43.9H197.7V37.02h2.622v4.542Zm-8.462-13.082h-3.894V26.118h3.894V22.147h2.414V38.266h-2.414Zm7.917,10.175H214.49V22.018h2.439Z" transform="translate(-31.857 -3.586)" fill="#fff"/>
        <path id="패스_10" data-name="패스 10" d="M235.323,40.5a14.691,14.691,0,0,0,5.737-1.064V41.8a14.144,14.144,0,0,1-5.737,1.064h-8.487V22.822H239.5v2.362h-10.1v6.307h8.851v2.363h-8.851V40.5Zm11.214-18.481V44.185h-2.6V33.464h-4.1V31.05h4.1V22.018Z" transform="translate(-36.941 -3.586)" fill="#fff"/>
        <g id="그룹_3" data-name="그룹 3" transform="translate(64.976 45.111)" opacity="0.8">
          <g id="그룹_2" data-name="그룹 2">
            <g id="그룹_1" data-name="그룹 1" clip-path="url(#clip-path-3)">
              <path id="패스_11" data-name="패스 11" d="M83.875,60.9h-4.19l-.871,2.155h-1.2l3.591-8.717h1.208L86,63.059H84.745Zm-.4-1.012-1.687-4.212-1.7,4.212Z" transform="translate(-77.617 -53.961)" fill="#fff"/>
              <path id="패스_12" data-name="패스 12" d="M89.878,57.289v.947a2.411,2.411,0,0,1,2.111-1.1,2.477,2.477,0,0,1,2.5,2.732v3.647H93.371V60.064c0-1.262-.609-1.948-1.622-1.948a2.035,2.035,0,0,0-1.872,2.177v3.222H88.757V57.289Z" transform="translate(-79.431 -54.416)" fill="#fff"/>
              <path id="패스_13" data-name="패스 13" d="M98.582,54.627a.745.745,0,1,1-.752-.74.724.724,0,0,1,.752.74M97.275,56.76H98.4V63H97.275Z" transform="translate(-80.788 -53.887)" fill="#fff"/>
              <path id="패스_14" data-name="패스 14" d="M101.683,57.289v.882a2.1,2.1,0,0,1,1.883-1.035,2,2,0,0,1,1.936,1.306,2.38,2.38,0,0,1,4.5,1.284v3.788h-1.121v-3.6c0-1.122-.545-1.8-1.426-1.8a1.834,1.834,0,0,0-1.611,2.047v3.352h-1.121V59.957c0-1.165-.555-1.84-1.426-1.84a1.837,1.837,0,0,0-1.611,2.035v3.364h-1.122V57.289Z" transform="translate(-81.353 -54.416)" fill="#fff"/>
              <path id="패스_15" data-name="패스 15" d="M113.158,60.4a3.1,3.1,0,0,1,3.08-3.265,2.512,2.512,0,0,1,2.21,1.077v-.926h1.12v6.226h-1.12v-.926a2.512,2.512,0,0,1-2.21,1.077,3.1,3.1,0,0,1-3.08-3.264m5.311,0a2.132,2.132,0,0,0-2.133-2.275,2.284,2.284,0,0,0,0,4.55,2.132,2.132,0,0,0,2.133-2.275" transform="translate(-83.404 -54.416)" fill="#fff"/>
              <rect id="사각형_2" data-name="사각형 2" width="1.121" height="8.989" transform="translate(37.763 0.109)" fill="#fff"/>
              <path id="패스_16" data-name="패스 16" d="M132.577,54.342c2.264,0,3.591,1.207,3.591,3.025s-1.328,3.025-3.591,3.025h-1.948v2.667h-1.143V54.342Zm2.449,3.025c0-1.3-.959-1.992-2.536-1.992h-1.861v3.984h1.861c1.577,0,2.536-.7,2.536-1.992" transform="translate(-86.064 -53.961)" fill="#fff"/>
              <path id="패스_17" data-name="패스 17" d="M139.837,57.289v.959a2.559,2.559,0,0,1,2.242-1.111,2.5,2.5,0,0,1,.848.109v1.067a2.207,2.207,0,0,0-.924-.174,2.146,2.146,0,0,0-2.166,2.154v3.222h-1.122V57.289Z" transform="translate(-87.567 -54.416)" fill="#fff"/>
              <path id="패스_18" data-name="패스 18" d="M150.465,60.4a3.184,3.184,0,1,1-3.179-3.265,3.13,3.13,0,0,1,3.179,3.265m-5.268,0a2.092,2.092,0,1,0,2.09-2.275A2.112,2.112,0,0,0,145.2,60.4" transform="translate(-88.443 -54.416)" fill="#fff"/>
              <path id="패스_19" data-name="패스 19" d="M156.121,57.941h-1.382v5.235h-1.121V57.941h-1.383V56.95h1.383V55.057h1.121V56.95h1.382Z" transform="translate(-89.768 -54.077)" fill="#fff"/>
              <path id="패스_20" data-name="패스 20" d="M157.423,60.4a3.121,3.121,0,1,1,6.236,0,3.166,3.166,0,0,1-.023.456h-5.093a1.986,1.986,0,0,0,2,1.861,1.851,1.851,0,0,0,1.741-.9h1.142a2.886,2.886,0,0,1-2.883,1.85,3.1,3.1,0,0,1-3.123-3.264m3.123-2.319a1.971,1.971,0,0,0-2,1.861h4.016a1.977,1.977,0,0,0-2.012-1.861" transform="translate(-90.613 -54.416)" fill="#fff"/>
              <path id="패스_21" data-name="패스 21" d="M169.19,63.667a3.266,3.266,0,0,1-.022-6.53,2.935,2.935,0,0,1,2.928,2.242h-1.144a1.815,1.815,0,0,0-1.784-1.252,2.284,2.284,0,0,0,0,4.549,1.849,1.849,0,0,0,1.807-1.273h1.143a2.941,2.941,0,0,1-2.928,2.264" transform="translate(-92.008 -54.416)" fill="#fff"/>
              <path id="패스_22" data-name="패스 22" d="M177.649,57.941h-1.382v5.235h-1.121V57.941h-1.382V56.95h1.382V55.057h1.121V56.95h1.382Z" transform="translate(-93.274 -54.077)" fill="#fff"/>
              <path id="패스_23" data-name="패스 23" d="M180.858,54.627a.745.745,0,1,1-.751-.74.723.723,0,0,1,.751.74m-1.306,2.133h1.121V63h-1.121Z" transform="translate(-94.187 -53.887)" fill="#fff"/>
              <path id="패스_24" data-name="패스 24" d="M188.814,60.4a3.184,3.184,0,1,1-3.179-3.265,3.13,3.13,0,0,1,3.179,3.265m-5.268,0a2.092,2.092,0,1,0,2.09-2.275,2.112,2.112,0,0,0-2.09,2.275" transform="translate(-94.689 -54.416)" fill="#fff"/>
              <path id="패스_25" data-name="패스 25" d="M192.695,57.289v.947a2.409,2.409,0,0,1,2.11-1.1,2.478,2.478,0,0,1,2.5,2.732v3.647h-1.121V60.064c0-1.262-.61-1.948-1.622-1.948a2.035,2.035,0,0,0-1.871,2.177v3.222h-1.122V57.289Z" transform="translate(-96.175 -54.416)" fill="#fff"/>
              <path id="패스_26" data-name="패스 26" d="M203.182,58.655a4.429,4.429,0,0,1,4.571-4.56,4.151,4.151,0,0,1,4.267,3.134h-1.165a3.014,3.014,0,0,0-3.08-2.079,3.505,3.505,0,0,0,0,7.009,3.119,3.119,0,0,0,3.168-2.2h1.164a4.253,4.253,0,0,1-4.353,3.254,4.429,4.429,0,0,1-4.571-4.56" transform="translate(-98.065 -53.921)" fill="#fff"/>
              <path id="패스_27" data-name="패스 27" d="M214.935,60.4a3.121,3.121,0,1,1,6.236,0,3.164,3.164,0,0,1-.023.456h-5.093a1.986,1.986,0,0,0,2,1.861,1.851,1.851,0,0,0,1.741-.9h1.142a2.886,2.886,0,0,1-2.883,1.85,3.1,3.1,0,0,1-3.123-3.264m3.123-2.319a1.971,1.971,0,0,0-2,1.861h4.016a1.977,1.977,0,0,0-2.013-1.861" transform="translate(-99.979 -54.416)" fill="#fff"/>
              <path id="패스_28" data-name="패스 28" d="M225.013,57.289v.947a2.409,2.409,0,0,1,2.11-1.1,2.478,2.478,0,0,1,2.5,2.732v3.647h-1.121V60.064c0-1.262-.61-1.948-1.622-1.948a2.035,2.035,0,0,0-1.871,2.177v3.222h-1.122V57.289Z" transform="translate(-101.438 -54.416)" fill="#fff"/>
              <path id="패스_29" data-name="패스 29" d="M235.472,57.941H234.09v5.235h-1.121V57.941h-1.383V56.95h1.383V55.057h1.121V56.95h1.382Z" transform="translate(-102.691 -54.077)" fill="#fff"/>
              <path id="패스_30" data-name="패스 30" d="M236.775,60.4a3.121,3.121,0,1,1,6.236,0,3.166,3.166,0,0,1-.023.456H237.9a1.986,1.986,0,0,0,2,1.861,1.851,1.851,0,0,0,1.741-.9h1.142a2.886,2.886,0,0,1-2.883,1.85,3.1,3.1,0,0,1-3.123-3.264m3.123-2.319a1.971,1.971,0,0,0-2,1.861h4.016a1.977,1.977,0,0,0-2.013-1.861" transform="translate(-103.536 -54.416)" fill="#fff"/>
              <path id="패스_31" data-name="패스 31" d="M246.853,57.289v.959a2.559,2.559,0,0,1,2.242-1.111,2.5,2.5,0,0,1,.848.109v1.067a2.207,2.207,0,0,0-.924-.174,2.146,2.146,0,0,0-2.166,2.154v3.222h-1.122V57.289Z" transform="translate(-104.995 -54.416)" fill="#fff"/>
            </g>
          </g>
        </g>
      </g>
    </g>
  </g>
</svg>
