<svg xmlns="http://www.w3.org/2000/svg" xmlns:xlink="http://www.w3.org/1999/xlink" width="168" height="168" viewBox="0 0 168 168">
  <defs>
    <clipPath id="clip-path">
      <rect id="사각형_120" data-name="사각형 120" width="167.79" height="166.398" fill="none"/>
    </clipPath>
  </defs>
  <g id="그룹_132" data-name="그룹 132" transform="translate(597 -1513)">
    <g id="그룹_109" data-name="그룹 109" transform="translate(-597 1514)" style="mix-blend-mode: difference;isolation: isolate">
      <path id="패스_168" data-name="패스 168" d="M13.06,93.321l1.65,7.519,4.211.713.47,2.15L2.333,100.69l-.477-2.168,14.235-9.859.494,2.247ZM11.4,94.442,4.508,99.128l8.227,1.388Z" fill="#fff"/>
      <g id="그룹_108" data-name="그룹 108">
        <g id="그룹_107" data-name="그룹 107" clip-path="url(#clip-path)">
          <path id="패스_169" data-name="패스 169" d="M4.771,85.624,6.51,85.6a4.429,4.429,0,0,1-2.066-3.855c-.033-2.7,1.884-4.622,4.964-4.659l6.7-.082.025,2.06-6.339.077c-2.319.027-3.565,1.164-3.543,3.022.025,2,1.921,3.417,4.042,3.392l5.918-.073.025,2.061L4.8,87.684Z" fill="#fff"/>
          <path id="패스_170" data-name="패스 170" d="M1.519,70.562A1.37,1.37,0,0,1,1.2,73.284,1.323,1.323,0,0,1,.01,71.777a1.329,1.329,0,0,1,1.509-1.215m15,4.155L5.137,73.4l.237-2.046L16.76,72.67Z" fill="#fff"/>
          <path id="패스_171" data-name="패스 171" d="M6.209,64.938l1.553.462a3.871,3.871,0,0,1-.836-3.858,3.673,3.673,0,0,1,3.314-2.729A4.287,4.287,0,0,1,9.1,54.239c.7-2.34,2.98-3.5,5.759-2.67l6.67,1.982-.586,1.974L14.594,53.64c-1.975-.586-3.448.018-3.909,1.571-.49,1.648.768,3.315,2.76,3.909l5.906,1.753-.587,1.975-6.269-1.863c-2.052-.609-3.53.015-3.985,1.549-.486,1.63.766,3.316,2.741,3.9L17.174,68.2l-.586,1.974L5.623,66.913Z" fill="#fff"/>
          <path id="패스_172" data-name="패스 172" d="M17.35,49.648a5.7,5.7,0,0,1-2.361-7.9,4.622,4.622,0,0,1,3.747-2.524l-1.472-.851L18.3,36.586l9.9,5.725L27.169,44.1,25.7,43.244a4.62,4.62,0,0,1-.317,4.506,5.7,5.7,0,0,1-8.029,1.9M22.236,41.2a3.918,3.918,0,0,0-5.581,1.3c-1.15,1.991-.354,4.208,1.707,5.4s4.379.776,5.531-1.215A3.918,3.918,0,0,0,22.236,41.2" fill="#fff"/>
          <rect id="사각형_119" data-name="사각형 119" width="2.06" height="16.519" transform="translate(16.85 30.212) rotate(-52.217)" fill="#fff"/>
          <path id="패스_173" data-name="패스 173" d="M30.361,16.749c3.188-2.674,6.483-2.541,8.629.019s1.7,5.828-1.483,8.5l-2.743,2.3,3.149,3.755-1.608,1.349L26.009,20.4Zm7.02,1.368c-1.529-1.824-3.7-1.673-5.922.19l-2.62,2.2,4.7,5.608,2.619-2.2c2.224-1.864,2.749-3.976,1.219-5.8" fill="#fff"/>
          <path id="패스_174" data-name="패스 174" d="M43.024,13.271l.893,1.518a4.709,4.709,0,0,1,2.517-3.849,4.6,4.6,0,0,1,1.445-.618l.995,1.689a4.088,4.088,0,0,0-1.627.587,3.947,3.947,0,0,0-1.423,5.433l3,5.1-1.776,1.046-5.8-9.864Z" fill="#fff"/>
          <path id="패스_175" data-name="패스 175" d="M62.5,10.428a5.853,5.853,0,1,1-10.857,4.366A5.853,5.853,0,1,1,62.5,10.428M53.516,14.04a3.845,3.845,0,1,0,7.108-2.858,3.845,3.845,0,1,0-7.108,2.858" fill="#fff"/>
          <path id="패스_176" data-name="패스 176" d="M69.8,4.729l-2.469.6,2.258,9.352-2,.484L65.327,5.809l-2.468.6-.427-1.769,2.468-.6L64.084.656l2-.483L66.9,3.556l2.469-.6Z" fill="#fff"/>
          <path id="패스_177" data-name="패스 177" d="M71.935,8.16A5.736,5.736,0,1,1,83.343,7.08a6.19,6.19,0,0,1,.039.84L74.065,8.8a3.647,3.647,0,0,0,3.987,3.057A3.4,3.4,0,0,0,81.079,9.9l2.09-.2a5.3,5.3,0,0,1-4.955,3.884A5.694,5.694,0,0,1,71.935,8.16m5.312-4.781a3.616,3.616,0,0,0-3.34,3.751l7.346-.7a3.636,3.636,0,0,0-4.006-3.055" fill="#fff"/>
          <path id="패스_178" data-name="패스 178" d="M90.885,13.583a5.774,5.774,0,0,1-5.334-6.492,5.754,5.754,0,0,1,6.344-5.467,5.394,5.394,0,0,1,5,4.575L94.8,6.016a3.338,3.338,0,0,0-3.065-2.579,3.866,3.866,0,0,0-4.173,3.831,3.865,3.865,0,0,0,3.44,4.5,3.4,3.4,0,0,0,3.513-2.04l2.092.183a5.406,5.406,0,0,1-5.724,3.674" fill="#fff"/>
          <path id="패스_179" data-name="패스 179" d="M105.7,6.2l-2.477-.57-2.164,9.376-2-.465,2.162-9.375-2.475-.571.409-1.774,2.476.571L102.4,0l2.007.464-.781,3.392,2.475.571Z" fill="#fff"/>
          <path id="패스_180" data-name="패스 180" d="M105.112,16.156l3.577-10.889,1.958.643L107.069,16.8Zm7.082-13.864a1.331,1.331,0,0,1-1.736.862,1.324,1.324,0,0,1-.868-1.717,1.325,1.325,0,0,1,1.717-.868,1.331,1.331,0,0,1,.887,1.723" fill="#fff"/>
          <path id="패스_181" data-name="패스 181" d="M122.1,17.146a5.852,5.852,0,1,1-10.551-5.055A5.852,5.852,0,1,1,122.1,17.146m-8.729-4.182a3.844,3.844,0,1,0,6.906,3.31,3.844,3.844,0,1,0-6.906-3.31" fill="#fff"/>
          <path id="패스_182" data-name="패스 182" d="M129.534,15.274l-1.029,1.4a4.433,4.433,0,0,1,4.322.667c2.176,1.6,2.561,4.285.738,6.766l-3.963,5.4-1.66-1.217,3.75-5.11c1.371-1.871,1.215-3.549-.285-4.649-1.611-1.181-3.885-.519-5.139,1.19l-3.5,4.771-1.662-1.217,6.768-9.222Z" fill="#fff"/>
          <path id="패스_183" data-name="패스 183" d="M140.973,29.046a8.137,8.137,0,0,1,11.742,1.7c2.484,3.314,2.276,7.043.088,9.729l-1.282-1.713a5.543,5.543,0,0,0-.334-6.821,6.441,6.441,0,0,0-10.312,7.719A5.731,5.731,0,0,0,147.6,41.9l1.282,1.714c-3.093,1.441-7.042.574-9.583-2.821a8.141,8.141,0,0,1,1.676-11.748" fill="#fff"/>
          <path id="패스_184" data-name="패스 184" d="M149.852,45.582A5.735,5.735,0,1,1,154.6,56.007a6.037,6.037,0,0,1-.78.312L149.942,47.8a3.647,3.647,0,0,0-1.584,4.766,3.4,3.4,0,0,0,2.836,2.223l.872,1.91a5.305,5.305,0,0,1-5.292-3.411,5.693,5.693,0,0,1,3.078-7.71m6.256,3.455a3.617,3.617,0,0,0-4.637-1.93l3.061,6.714a3.636,3.636,0,0,0,1.576-4.784" fill="#fff"/>
          <path id="패스_185" data-name="패스 185" d="M161.535,59.293l-1.69.421a4.434,4.434,0,0,1,2.9,3.279c.65,2.623-.775,4.934-3.766,5.678l-6.505,1.615-.5-2,6.157-1.529c2.252-.559,3.205-1.951,2.757-3.757-.482-1.941-2.656-2.886-4.714-2.376l-5.747,1.428-.5-2,11.107-2.759Z" fill="#fff"/>
          <path id="패스_186" data-name="패스 186" d="M162.764,77.36l-.248-2.527-9.572.939-.2-2.049,9.572-.94-.248-2.527,1.81-.178.248,2.527,3.463-.34.2,2.05-3.463.34.249,2.527Z" fill="#fff"/>
          <path id="패스_187" data-name="패스 187" d="M159.073,79a5.736,5.736,0,1,1-.5,11.449,5.889,5.889,0,0,1-.838-.076l.41-9.351a3.647,3.647,0,0,0-3.578,3.527,3.4,3.4,0,0,0,1.519,3.269l-.092,2.1a5.307,5.307,0,0,1-3.166-5.443A5.7,5.7,0,0,1,159.073,79m4.006,5.922a3.618,3.618,0,0,0-3.256-3.826l-.323,7.373a3.636,3.636,0,0,0,3.579-3.547" fill="#fff"/>
          <path id="패스_188" data-name="패스 188" d="M163.219,96.361l-1.723-.353a4.706,4.706,0,0,1,1.172,4.445,4.574,4.574,0,0,1-.51,1.487l-1.918-.392a4.117,4.117,0,0,0,.655-1.6,3.945,3.945,0,0,0-3.082-4.691l-5.8-1.188.413-2.018,11.205,2.295Z" fill="#fff"/>
          <path id="패스_189" data-name="패스 189" d="M127.151,139.1c-1.577-1.728.423-4.639,3.434-7.391s6.091-4.484,7.67-2.755-.435,4.623-3.446,7.376-6.079,4.5-7.658,2.77m1.537-1.4c.782.856,3.016-.643,5.067-2.519s3.746-3.964,2.965-4.821c-.8-.871-3.031.629-5.082,2.5s-3.746,3.965-2.95,4.836m1.854,6.625-1.08-1.182,12.6-11.509,1.079,1.181-5.568,5.087,1.189,1.3,4.666-4.265,3.979,4.356-10.793,9.863-1.078-1.181,9.33-8.528-1.821-1.993-9.479,8.663-1.08-1.182,4.83-4.412-1.189-1.3Z" fill="#fff"/>
          <path id="패스_190" data-name="패스 190" d="M119.061,149.941l-.708-1.368-5.666,2.933-1.875-3.623,11.331-5.866-.551-1.065-11.6,6-.68-1.314,13.322-6.9,1.875,3.624-11.333,5.864.552,1.066,11.367-5.883.682,1.314-5.684,2.942.707,1.367,6.7-3.465.709,1.367-15.152,7.841-.707-1.367Zm-4.308,5.427,12.967-6.71,2.546,4.919L117.3,160.288Zm3.589,2.67,9.466-4.9-1.149-2.22-9.466,4.9Z" fill="#fff"/>
          <path id="패스_191" data-name="패스 191" d="M86.076,152.787l-.262-1.841,16.891-2.4.262,1.842-7.426,1.054.54,3.8,6.316-.9,1.414,9.96-1.94.276-.43-3.03-10.773,1.528.431,3.032-1.942.274-1.413-9.961,6.336-.9-.539-3.8Zm14.631,3.6-10.772,1.529.483,3.407,10.773-1.53Z" fill="#fff"/>
          <path id="패스_192" data-name="패스 192" d="M66.892,161.156l15.724,1.931-.217,1.767-6.83-.839-.292,2.383-2.026-.249.293-2.383-6.869-.843Zm.667-10.518.217-1.768,16.934,2.08-.216,1.767L77.03,151.8l-.321,2.6c3.5.59,5.956,1.88,5.688,4.063-.3,2.4-3.491,3-7.5,2.505s-6.968-1.844-6.673-4.246c.269-2.183,2.969-2.839,6.5-2.566l.319-2.6Zm7.96,5.249c-2.878-.354-5.141-.147-5.292,1.084-.153,1.25,1.992,2,4.871,2.352,2.859.35,5.141.146,5.294-1.1.151-1.23-2.014-1.98-4.873-2.332" fill="#fff"/>
          <path id="패스_193" data-name="패스 193" d="M45.391,142.765l1.684.838-5.711,11.483-1.682-.838Zm1.972,9.74,2.687,1.336-.811,1.63-2.686-1.336-1.364,2.741-1.666-.829,5.533-11.125,1.666.829Zm-1.349-11.933.8-1.612,13.651,6.788L58.1,150.494l-1.809-.9,1.559-3.134Zm13.025,11.639-.828,1.666c-2.748-.54-5.186,2.114-7.047,5.857l-1.675-.9A19.14,19.14,0,0,1,52,154.946l-1.874-5.534,1.734-.568,1.569,4.713a5.941,5.941,0,0,1,5.606-1.346" fill="#fff"/>
          <path id="패스_194" data-name="패스 194" d="M22.642,140.38l11.3-12.817,1.5,1.323-5.463,6.2,2.371,2.09-1.231,1.4-2.372-2.091-4.6,5.223Zm15.9-4.97a11.355,11.355,0,0,0-3.859-2.31l1.2-1.365a10.909,10.909,0,0,1,3.859,2.309l4.907,4.326L34.443,149.956,27.119,143.5l1.2-1.366,5.839,5.145,3.214-3.646-5.117-4.511,1.2-1.366,5.118,4.51,3.387-3.841Z" fill="#fff"/>
          <path id="패스_195" data-name="패스 195" d="M21.176,120.026a2.869,2.869,0,1,1-2.869-2.869,2.868,2.868,0,0,1,2.869,2.869" fill="#fff"/>
          <path id="패스_196" data-name="패스 196" d="M155.526,117.157a2.869,2.869,0,1,1-2.869-2.869,2.869,2.869,0,0,1,2.869,2.869" fill="#fff"/>
        </g>
      </g>
    </g>
    <rect id="사각형_157" data-name="사각형 157" width="168" height="168" transform="translate(-597 1513)" fill="rgba(255,255,255,0)" opacity="0"/>
  </g>
</svg>
